<svg xmlns:xlink="http://www.w3.org/1999/xlink" xmlns="http://www.w3.org/2000/svg" width="292" height="362" viewBox="0 0 292 362" fill="none">
<path fill-rule="evenodd" clip-rule="evenodd" d="M8 55.971L146 10L284 55.971V95.683V143.378V167.82C284 253.003 225.12 332.661 146 352C66.88 332.661 8 253.003 8 167.82V143.378V95.683V55.971Z" fill="#F4F5F7"/>
<path fill-rule="evenodd" clip-rule="evenodd" d="M0 48.723L146 0.086998L292 48.723V90.737V141.197V167.056C292 257.178 229.707 341.453 146 361.913C62.293 341.453 0 257.178 0 167.056V141.197V90.737V48.723Z" fill="white"/>
<mask id="mask0_146_96" style="mask-type:alpha" maskUnits="userSpaceOnUse" x="146" y="10" width="138" height="342">
<path fill-rule="evenodd" clip-rule="evenodd" d="M146 352C225.12 332.661 284 253.003 284 167.82V143.378V95.683V55.971L146 10V352Z" fill="#4074BC"/>
</mask>
<g mask="url(#mask0_146_96)">
<path d="M221 -1H-65V207H221V-1Z" fill="#223492"/>
<path d="M507 57H221V87H507V57Z" fill="#D52B1E"/>
<path d="M507 117H221V147H507V117Z" fill="#D52B1E"/>
<path d="M507 177H221V207H507V177Z" fill="#D52B1E"/>
<path d="M507 237H-65V267H507V237Z" fill="#D52B1E"/>
<path d="M507 297H-65V327H507V297Z" fill="#D52B1E"/>
<path d="M159.095 93.159L150.079 91.839L146.056 83.631C145.939 83.407 145.76 83.227 145.535 83.119C144.978 82.841 144.296 83.065 144.018 83.631L139.986 91.839L130.979 93.159C130.727 93.195 130.503 93.311 130.323 93.491C130.117 93.707 130 93.994 130 94.299C130.009 94.605 130.135 94.892 130.35 95.098L136.87 101.492L135.325 110.508C135.289 110.723 135.316 110.939 135.397 111.136C135.469 111.325 135.603 111.505 135.774 111.621C135.945 111.747 136.151 111.828 136.367 111.837C136.573 111.855 136.789 111.81 136.977 111.711L145.032 107.455L153.096 111.711C153.312 111.828 153.572 111.864 153.815 111.828C154.434 111.72 154.847 111.128 154.74 110.508L153.204 101.492L159.723 95.098C159.894 94.928 160.011 94.703 160.047 94.452C160.145 93.823 159.714 93.249 159.095 93.159Z" fill="white"/>
<path d="M159.095 13.1588L150.079 11.8387L146.056 3.6311C145.939 3.4066 145.76 3.227 145.535 3.1193C144.978 2.8409 144.296 3.0654 144.018 3.6311L139.986 11.8387L130.979 13.1588C130.727 13.1947 130.503 13.3114 130.323 13.491C130.117 13.7065 130 13.9939 130 14.2992C130.009 14.6045 130.135 14.8919 130.35 15.0984L136.87 21.4921L135.325 30.5079C135.289 30.7234 135.316 30.9389 135.397 31.1365C135.469 31.3251 135.603 31.5047 135.774 31.6214C135.945 31.7471 136.151 31.8279 136.367 31.8369C136.573 31.8549 136.789 31.81 136.977 31.7112L145.032 27.4547L153.096 31.7112C153.312 31.8279 153.572 31.8639 153.815 31.8279C154.434 31.7202 154.847 31.1275 154.74 30.5079L153.204 21.4921L159.723 15.0984C159.894 14.9278 160.011 14.7033 160.047 14.4519C160.145 13.8233 159.714 13.2486 159.095 13.1588Z" fill="white"/>
<path d="M159.095 173.159L150.079 171.839L146.056 163.631C145.939 163.407 145.76 163.227 145.535 163.119C144.978 162.841 144.296 163.065 144.018 163.631L139.986 171.839L130.979 173.159C130.727 173.195 130.503 173.311 130.323 173.491C130.117 173.707 130 173.994 130 174.299C130.009 174.605 130.135 174.892 130.35 175.098L136.87 181.492L135.325 190.508C135.289 190.723 135.316 190.939 135.397 191.136C135.469 191.325 135.603 191.505 135.774 191.621C135.945 191.747 136.151 191.828 136.367 191.837C136.573 191.855 136.789 191.81 136.977 191.711L145.032 187.455L153.096 191.711C153.312 191.828 153.572 191.864 153.815 191.828C154.434 191.72 154.847 191.128 154.74 190.508L153.204 181.492L159.723 175.098C159.894 174.928 160.011 174.703 160.047 174.452C160.145 173.823 159.714 173.249 159.095 173.159Z" fill="white"/>
<path d="M204.095 93.159L195.079 91.839L191.056 83.631C190.939 83.407 190.76 83.227 190.535 83.119C189.978 82.841 189.296 83.065 189.018 83.631L184.986 91.839L175.979 93.159C175.727 93.195 175.503 93.311 175.323 93.491C175.117 93.707 175 93.994 175 94.299C175.009 94.605 175.135 94.892 175.35 95.098L181.87 101.492L180.325 110.508C180.289 110.723 180.316 110.939 180.397 111.136C180.469 111.325 180.603 111.505 180.774 111.621C180.945 111.747 181.151 111.828 181.367 111.837C181.573 111.855 181.789 111.81 181.977 111.711L190.032 107.455L198.096 111.711C198.312 111.828 198.572 111.864 198.815 111.828C199.434 111.72 199.847 111.128 199.74 110.508L198.204 101.492L204.723 95.098C204.894 94.928 205.011 94.703 205.047 94.452C205.145 93.823 204.714 93.249 204.095 93.159Z" fill="white"/>
<path d="M204.095 13.1588L195.079 11.8387L191.056 3.6311C190.939 3.4066 190.76 3.227 190.535 3.1193C189.978 2.8409 189.296 3.0654 189.018 3.6311L184.986 11.8387L175.979 13.1588C175.727 13.1947 175.503 13.3114 175.323 13.491C175.117 13.7065 175 13.9939 175 14.2992C175.009 14.6045 175.135 14.8919 175.35 15.0984L181.87 21.4921L180.325 30.5079C180.289 30.7234 180.316 30.9389 180.397 31.1365C180.469 31.3251 180.603 31.5047 180.774 31.6214C180.945 31.7471 181.151 31.8279 181.367 31.8369C181.573 31.8549 181.789 31.81 181.977 31.7112L190.032 27.4547L198.096 31.7112C198.312 31.8279 198.572 31.8639 198.815 31.8279C199.434 31.7202 199.847 31.1275 199.74 30.5079L198.204 21.4921L204.723 15.0984C204.894 14.9278 205.011 14.7033 205.047 14.4519C205.145 13.8233 204.714 13.2486 204.095 13.1588Z" fill="white"/>
<path d="M204.095 173.159L195.079 171.839L191.056 163.631C190.939 163.407 190.76 163.227 190.535 163.119C189.978 162.841 189.296 163.065 189.018 163.631L184.986 171.839L175.979 173.159C175.727 173.195 175.503 173.311 175.323 173.491C175.117 173.707 175 173.994 175 174.299C175.009 174.605 175.135 174.892 175.35 175.098L181.87 181.492L180.325 190.508C180.289 190.723 180.316 190.939 180.397 191.136C180.469 191.325 180.603 191.505 180.774 191.621C180.945 191.747 181.151 191.828 181.367 191.837C181.573 191.855 181.789 191.81 181.977 191.711L190.032 187.455L198.096 191.711C198.312 191.828 198.572 191.864 198.815 191.828C199.434 191.72 199.847 191.128 199.74 190.508L198.204 181.492L204.723 175.098C204.894 174.928 205.011 174.703 205.047 174.452C205.145 173.823 204.714 173.249 204.095 173.159Z" fill="white"/>
<path d="M182.095 133.159L173.079 131.839L169.056 123.631C168.939 123.407 168.76 123.227 168.535 123.119C167.978 122.841 167.296 123.065 167.018 123.631L162.986 131.839L153.979 133.159C153.727 133.195 153.503 133.311 153.323 133.491C153.117 133.707 153 133.994 153 134.299C153.009 134.605 153.135 134.892 153.35 135.098L159.87 141.492L158.325 150.508C158.289 150.723 158.316 150.939 158.397 151.136C158.469 151.325 158.603 151.505 158.774 151.621C158.945 151.747 159.151 151.828 159.367 151.837C159.573 151.855 159.789 151.81 159.977 151.711L168.032 147.455L176.096 151.711C176.312 151.828 176.572 151.864 176.815 151.828C177.434 151.72 177.847 151.128 177.74 150.508L176.204 141.492L182.723 135.098C182.894 134.928 183.011 134.703 183.047 134.452C183.145 133.823 182.714 133.249 182.095 133.159Z" fill="white"/>
<path d="M182.095 53.159L173.079 51.839L169.056 43.631C168.939 43.407 168.76 43.227 168.535 43.119C167.978 42.841 167.296 43.065 167.018 43.631L162.986 51.839L153.979 53.159C153.727 53.195 153.503 53.311 153.323 53.491C153.117 53.707 153 53.994 153 54.299C153.009 54.605 153.135 54.892 153.35 55.098L159.87 61.492L158.325 70.508C158.289 70.723 158.316 70.939 158.397 71.136C158.469 71.325 158.603 71.505 158.774 71.621C158.945 71.747 159.151 71.828 159.367 71.837C159.573 71.855 159.789 71.81 159.977 71.711L168.032 67.455L176.096 71.711C176.312 71.828 176.572 71.864 176.815 71.828C177.434 71.72 177.847 71.128 177.74 70.508L176.204 61.492L182.723 55.098C182.894 54.928 183.011 54.703 183.047 54.452C183.145 53.823 182.714 53.249 182.095 53.159Z" fill="white"/>
</g>
<mask id="mask1_146_96" style="mask-type:alpha" maskUnits="userSpaceOnUse" x="8" y="10" width="138" height="342">
<path fill-rule="evenodd" clip-rule="evenodd" d="M146 10L8 55.971V95.683V143.378V167.82C8 253.003 66.88 332.661 146 352V10Z" fill="#F4F5F7"/>
</mask>
<g mask="url(#mask1_146_96)">
<path d="M4.336 -5H287.674C289.864 -5 292.023 -4.83 294.173 -4.49C296.322 -4.142 298.401 -3.6401 300.428 -2.9683C302.446 -2.3045 304.372 -1.4788 306.187 -0.5075C308.012 0.4639 309.695 1.5647 311.236 2.8032C312.788 4.0417 314.166 5.3854 315.383 6.8424C316.6 8.2995 317.634 9.8293 318.465 11.4483C319.307 13.0672 319.935 14.7347 320.361 16.4507C320.787 18.1587 321 19.899 321 21.6475V341.361C321 343.109 320.787 344.841 320.361 346.557C319.935 348.273 319.307 349.941 318.465 351.552C317.634 353.171 316.6 354.709 315.383 356.158C314.166 357.615 312.788 358.958 311.236 360.197C309.695 361.435 308.012 362.536 306.187 363.507C304.372 364.487 302.446 365.305 300.428 365.976C298.401 366.64 296.322 367.15 294.173 367.49C292.023 367.83 289.864 368 287.674 368H4.336C2.146 368 -0.0230019 367.83 -2.163 367.49C-4.3121 367.15 -6.4007 366.64 -8.4183 365.976C-10.4461 365.305 -12.3623 364.487 -14.1771 363.507C-16.0021 362.536 -17.6851 361.435 -19.2364 360.197C-20.7775 358.958 -22.1665 357.615 -23.3831 356.158C-24.5998 354.709 -25.6238 353.171 -26.4552 351.552C-27.2967 349.941 -27.9253 348.273 -28.3511 346.557C-28.7871 344.841 -29 343.109 -29 341.361V21.6475C-29 19.899 -28.7871 18.1587 -28.3511 16.4507C-27.9253 14.7347 -27.2967 13.0672 -26.4552 11.4483C-25.6238 9.8293 -24.5998 8.2995 -23.3831 6.8424C-22.1665 5.3854 -20.7775 4.0417 -19.2364 2.8032C-17.6851 1.5647 -16.0021 0.4639 -14.1771 -0.5075C-12.3623 -1.4788 -10.4461 -2.3045 -8.4183 -2.9683C-6.4007 -3.6401 -4.3121 -4.142 -2.163 -4.49C-0.0230019 -4.83 2.146 -5 4.336 -5Z" fill="#2655D8"/>
<path d="M158.871 94.157L149.856 92.837L145.833 84.638C145.725 84.414 145.536 84.225 145.321 84.117C144.755 83.839 144.073 84.073 143.794 84.638L139.762 92.837L130.755 94.157C130.504 94.193 130.28 94.31 130.109 94.489C129.893 94.705 129.777 95.001 129.786 95.297C129.786 95.603 129.911 95.89 130.127 96.106L136.646 102.49L135.102 111.515C135.066 111.722 135.093 111.937 135.174 112.135C135.254 112.332 135.389 112.503 135.56 112.629C135.73 112.754 135.928 112.826 136.143 112.844C136.35 112.853 136.565 112.808 136.754 112.709L144.809 108.453L152.873 112.709C153.088 112.835 153.349 112.871 153.591 112.826C154.211 112.718 154.624 112.135 154.516 111.515L152.981 102.49L159.5 96.106C159.68 95.926 159.796 95.701 159.832 95.45C159.922 94.83 159.491 94.247 158.871 94.157Z" fill="#F3D153"/>
<path d="M117.484 104.305L108.468 102.985L104.436 94.777C104.328 94.553 104.148 94.373 103.924 94.265C103.367 93.987 102.685 94.211 102.406 94.777L98.3739 102.985L89.3669 104.305C89.1159 104.341 88.8919 104.457 88.7119 104.637C88.5049 104.853 88.3889 105.14 88.3889 105.445C88.3979 105.751 88.5229 106.038 88.7389 106.244L95.2579 112.638L93.7139 121.654C93.6779 121.869 93.7049 122.085 93.7859 122.282C93.8569 122.471 93.9919 122.651 94.1629 122.767C94.3329 122.893 94.5399 122.974 94.7549 122.983C94.9619 123.001 95.1769 122.956 95.3569 122.857L103.421 118.601L111.485 122.857C111.7 122.974 111.961 123.01 112.203 122.974C112.823 122.866 113.236 122.274 113.128 121.654L111.584 112.638L118.112 106.244C118.283 106.074 118.399 105.849 118.435 105.598C118.534 104.969 118.103 104.395 117.484 104.305Z" fill="#F3D153"/>
<path d="M87.1939 134.737L78.1779 133.417L74.1549 125.209C74.0469 124.985 73.8589 124.805 73.6429 124.697C73.0769 124.419 72.3949 124.652 72.1169 125.209L68.0849 133.417L59.0779 134.737C58.8259 134.773 58.6019 134.889 58.4309 135.069C58.2159 135.285 58.0989 135.572 58.1079 135.877C58.1079 136.183 58.2339 136.47 58.4489 136.685L64.9689 143.07L63.4239 152.086C63.3879 152.301 63.4149 152.517 63.4959 152.714C63.5769 152.912 63.7109 153.083 63.8819 153.208C64.0529 153.325 64.2499 153.406 64.4659 153.415C64.6719 153.433 64.8879 153.388 65.0759 153.289L73.1309 149.033L81.1949 153.289C81.4109 153.406 81.6709 153.451 81.9139 153.406C82.5329 153.298 82.9459 152.706 82.8389 152.086L81.3029 143.07L87.8219 136.685C88.0019 136.506 88.1189 136.281 88.1549 136.03C88.2439 135.401 87.8129 134.827 87.1939 134.737Z" fill="#F3D153"/>
<path d="M76.086 176.323L67.079 175.012L63.047 166.804C62.939 166.58 62.76 166.4 62.535 166.283C61.969 166.005 61.296 166.239 61.009 166.804L56.986 175.012L47.97 176.323C47.727 176.359 47.494 176.485 47.323 176.655C47.117 176.88 47 177.167 47 177.472C47.009 177.778 47.126 178.065 47.341 178.272L53.861 184.665L52.325 193.681C52.289 193.888 52.307 194.103 52.388 194.301C52.469 194.498 52.603 194.669 52.774 194.795C52.945 194.92 53.151 195.001 53.358 195.01C53.573 195.028 53.78 194.983 53.968 194.884L62.032 190.628L70.087 194.884C70.312 195.001 70.563 195.037 70.815 195.001C71.425 194.893 71.847 194.301 71.74 193.681L70.195 184.665L76.714 178.272C76.894 178.101 77.011 177.868 77.047 177.625C77.145 176.996 76.705 176.422 76.086 176.323Z" fill="#F3D153"/>
<path d="M87.1939 217.918L78.1779 216.607L74.1549 208.399C74.0469 208.175 73.8589 207.995 73.6429 207.878C73.0769 207.6 72.3949 207.833 72.1169 208.399L68.0849 216.607L59.0779 217.918C58.8259 217.954 58.6019 218.07 58.4309 218.25C58.2159 218.465 58.0989 218.762 58.1079 219.067C58.1079 219.363 58.2339 219.651 58.4489 219.866L64.9689 226.251L63.4239 235.276C63.3879 235.482 63.4149 235.698 63.4959 235.895C63.5769 236.093 63.7109 236.264 63.8819 236.389C64.0529 236.515 64.2499 236.587 64.4659 236.605C64.6719 236.623 64.8879 236.578 65.0759 236.479L73.1309 232.214L81.1949 236.479C81.4109 236.596 81.6709 236.632 81.9139 236.587C82.5329 236.479 82.9459 235.895 82.8389 235.276L81.3029 226.251L87.8219 219.866C88.0019 219.696 88.1189 219.462 88.1549 219.211C88.2439 218.591 87.8129 218.016 87.1939 217.918Z" fill="#F3D153"/>
<path d="M117.484 248.351L108.468 247.04L104.436 238.832C104.328 238.608 104.148 238.428 103.924 238.311C103.367 238.033 102.685 238.266 102.406 238.832L98.3739 247.04L89.3669 248.351C89.1159 248.387 88.8919 248.503 88.7119 248.683C88.5049 248.899 88.3889 249.195 88.3889 249.5C88.3979 249.797 88.5229 250.093 88.7389 250.299L95.2579 256.684L93.7139 265.709C93.6779 265.915 93.7049 266.131 93.7859 266.329C93.8569 266.526 93.9919 266.697 94.1629 266.822C94.3329 266.948 94.5399 267.02 94.7549 267.038C94.9619 267.056 95.1769 267.011 95.3569 266.912L103.421 262.656L111.485 266.912C111.7 267.029 111.961 267.065 112.203 267.02C112.823 266.921 113.236 266.329 113.128 265.709L111.584 256.684L118.112 250.299C118.283 250.129 118.399 249.895 118.435 249.653C118.534 249.024 118.103 248.45 117.484 248.351Z" fill="#F3D153"/>
<path d="M158.871 258.497L149.856 257.177L145.833 248.97C145.725 248.745 145.536 248.566 145.321 248.458C144.755 248.18 144.073 248.413 143.794 248.97L139.762 257.177L130.755 258.497C130.504 258.533 130.28 258.65 130.109 258.83C129.893 259.045 129.777 259.342 129.786 259.638C129.786 259.943 129.911 260.231 130.127 260.446L136.646 266.831L135.102 275.847C135.066 276.062 135.093 276.278 135.174 276.475C135.254 276.673 135.389 276.843 135.56 276.969C135.73 277.095 135.928 277.167 136.143 277.185C136.35 277.194 136.565 277.149 136.754 277.05L144.809 272.793L152.873 277.05C153.088 277.167 153.349 277.212 153.591 277.167C154.211 277.059 154.624 276.475 154.516 275.847L152.981 266.831L159.5 260.446C159.68 260.267 159.796 260.042 159.832 259.791C159.922 259.171 159.491 258.587 158.871 258.497Z" fill="#F3D153"/>
</g>
</svg>