<svg xmlns:xlink="http://www.w3.org/1999/xlink" xmlns="http://www.w3.org/2000/svg" width="34" height="35" viewBox="0 0 34 35" fill="none">
<g clip-path="url(#clip0_2996_14128)">
<path d="M16.9363 0.536224C19.1309 0.536224 21.2653 0.982542 23.2726 1.8682C25.2128 2.72598 26.9525 3.94637 28.4445 5.50152C29.9366 7.05664 31.1141 8.87678 31.9305 10.8922C32.7802 12.9843 33.2083 15.202 33.2083 17.4963C33.2083 19.2816 32.9474 21.0249 32.4255 22.7056L29.1204 20.9134C29.4081 19.8046 29.5485 18.6539 29.5485 17.4963C29.5485 15.718 29.2141 13.9955 28.5582 12.3776C27.9226 10.8155 27.0128 9.40675 25.8552 8.2003C24.6977 6.99388 23.3461 6.04546 21.8474 5.38295C20.2951 4.69953 18.6425 4.35084 16.9363 4.35084C15.2301 4.35084 13.5775 4.69953 12.0252 5.38295C10.5265 6.04546 9.17492 6.99388 8.01741 8.2003C6.85991 9.40675 5.94997 10.8155 5.31434 12.3776C4.65864 13.9955 4.3241 15.718 4.3241 17.4963C4.3241 18.6609 4.47127 19.8115 4.75229 20.9204L1.44703 22.7127C0.925146 21.032 0.664202 19.2816 0.664202 17.4963C0.664202 15.2089 1.09242 12.9843 1.94215 10.8922C2.76513 8.86978 3.93602 7.05664 5.42805 5.50152C6.92013 3.94637 8.66642 2.719 10.6001 1.8682C12.6073 0.982542 14.7417 0.536224 16.9363 0.536224ZM16.9363 0.0620117C7.69624 0.0620117 0.209229 7.86557 0.209229 17.4963C0.209229 19.5605 0.55715 21.541 1.18609 23.382L5.28756 21.1645C4.94634 19.986 4.7724 18.7585 4.7724 17.5033C4.7724 15.7877 5.09354 14.128 5.72918 12.5729C6.3447 11.0665 7.22122 9.7067 8.33858 8.54204C9.45594 7.37745 10.7607 6.46388 12.2059 5.82229C13.7046 5.15978 15.297 4.82505 16.9363 4.82505C18.5756 4.82505 20.1746 5.15978 21.6667 5.82229C23.112 6.46388 24.4167 7.37745 25.5341 8.54204C26.6513 9.7067 27.5278 11.0665 28.1434 12.5729C28.7791 14.135 29.1002 15.7947 29.1002 17.5033C29.1002 18.7585 28.9263 19.986 28.585 21.1645L32.6865 23.382C33.3222 21.541 33.6633 19.5605 33.6633 17.4963C33.6633 7.86557 26.1764 0.0620117 16.9363 0.0620117Z" fill="black"/>
<path d="M16.9362 34.9308C24.1958 34.9308 30.3715 30.112 32.6864 23.3754L28.585 21.1577C28.4579 21.5901 28.3174 22.0156 28.1434 22.427C27.5278 23.9334 26.6514 25.2932 25.5339 26.4578C24.4166 27.6224 23.1118 28.5359 21.6667 29.1775C20.1679 29.84 18.5755 30.1748 16.9362 30.1748C15.2969 30.1748 13.6979 29.84 12.2058 29.1775C10.7606 28.5359 9.45592 27.6224 8.3385 26.4578C7.22114 25.2932 6.34465 23.9334 5.72912 22.427C5.56185 22.0086 5.41463 21.5901 5.28749 21.1577L1.18604 23.3754C3.50106 30.112 9.67666 34.9308 16.9362 34.9308Z" fill="black"/>
<path d="M8.90046 15.4882H8.4187L10.2922 10.9692H10.7204L12.5804 15.4882H12.092L11.6169 14.3027H9.37554L8.90046 15.4882ZM9.53612 13.8772H11.4497L10.4929 11.4783L9.53612 13.8772Z" fill="black"/>
<path d="M13.1223 15.4882V10.9692H13.5639V15.4882H13.1223Z" fill="black"/>
<path d="M18.2477 14.7557C18.1741 14.8674 18.0871 14.9789 17.98 15.0835C17.8729 15.188 17.7526 15.2788 17.6188 15.3554C17.4848 15.4321 17.331 15.4949 17.1637 15.5438C16.9964 15.5856 16.8159 15.6135 16.6218 15.6135C16.294 15.6135 15.9928 15.5507 15.7186 15.4321C15.4375 15.3136 15.2033 15.1463 15.0026 14.937C14.8018 14.7277 14.648 14.4768 14.5342 14.1838C14.4206 13.898 14.3669 13.5771 14.3669 13.2355C14.3669 12.8937 14.4272 12.5729 14.5409 12.287C14.6547 12.0011 14.8153 11.7501 15.016 11.5338C15.2167 11.3247 15.4576 11.1572 15.7318 11.0387C16.0063 10.9202 16.3073 10.8574 16.6285 10.8574C16.7891 10.8574 16.943 10.8714 17.0968 10.9062C17.2507 10.9411 17.3912 10.9899 17.5318 11.0527C17.6655 11.1154 17.786 11.1922 17.8997 11.2758C18.0068 11.3665 18.1004 11.4641 18.1741 11.5757L17.806 11.8546C17.7592 11.7849 17.699 11.7082 17.6255 11.6385C17.5518 11.5688 17.4582 11.499 17.3577 11.4502C17.2574 11.3944 17.1436 11.3525 17.0232 11.3177C16.9028 11.2828 16.7756 11.2688 16.6351 11.2688C16.3541 11.2688 16.1 11.3247 15.8791 11.4293C15.6584 11.5339 15.471 11.6803 15.3104 11.8616C15.1564 12.0429 15.0361 12.2522 14.9557 12.4893C14.8755 12.7264 14.8353 12.9774 14.8353 13.2425C14.8353 13.5074 14.8755 13.7585 14.9624 13.9956C15.0494 14.2328 15.1632 14.4419 15.3238 14.6231C15.4776 14.8046 15.665 14.944 15.8924 15.0556C16.1133 15.1601 16.3675 15.216 16.6418 15.216C16.8894 15.216 17.1302 15.1601 17.351 15.0556C17.5785 14.951 17.7659 14.7767 17.9131 14.5465L18.2477 14.7557Z" fill="black"/>
<path d="M18.8428 10.9692H20.0672C20.2879 10.9692 20.4887 10.9971 20.6693 11.046C20.85 11.0947 21.0039 11.1715 21.1311 11.2691C21.2581 11.3668 21.3585 11.4923 21.4255 11.6457C21.4924 11.7991 21.5324 11.9734 21.5324 12.1757C21.5324 12.3779 21.499 12.5592 21.4255 12.7057C21.3517 12.8591 21.2513 12.9846 21.1243 13.0823C20.9971 13.1799 20.8433 13.2566 20.656 13.3124C20.4752 13.3612 20.2746 13.3891 20.0538 13.3891H19.2843V15.4882H18.8428V10.9692ZM20.0338 12.9986C20.3815 12.9986 20.6426 12.9288 20.8232 12.7894C21.0039 12.6499 21.0908 12.4476 21.0908 12.1757C21.0908 11.8967 20.9971 11.6875 20.8099 11.562C20.6225 11.4295 20.3616 11.3668 20.027 11.3668H19.2776V12.9986H20.0338Z" fill="black"/>
<path d="M21.7737 15.4882H21.292L23.1654 10.9692H23.5935L25.4537 15.4882H24.9652L24.4902 14.3027H22.2488L21.7737 15.4882ZM22.4094 13.8772H24.3229L23.3661 11.4783L22.4094 13.8772Z" fill="black"/>
<path d="M10.6667 20.6767C10.5797 20.5581 10.4593 20.4606 10.3121 20.3907C10.1649 20.321 10.0244 20.2861 9.89057 20.2861C9.82368 20.2861 9.75012 20.2932 9.6765 20.3071C9.60288 20.321 9.54266 20.342 9.48244 20.3838C9.42222 20.4186 9.3754 20.4676 9.33526 20.5233C9.29511 20.5791 9.27504 20.6558 9.27504 20.7464C9.27504 20.8231 9.28844 20.8859 9.32185 20.9348C9.35533 20.9835 9.39548 21.0325 9.45569 21.0673C9.51591 21.1022 9.5828 21.144 9.66983 21.1719C9.75012 21.2068 9.84375 21.2347 9.94412 21.2696C10.0913 21.3183 10.2452 21.3741 10.4058 21.4369C10.5664 21.4996 10.7069 21.5833 10.8407 21.6809C10.9745 21.7856 11.0815 21.9111 11.1685 22.0575C11.2555 22.2108 11.2957 22.3992 11.2957 22.6224C11.2957 22.8804 11.2488 23.1036 11.1552 23.2989C11.0615 23.4871 10.941 23.6475 10.7872 23.7661C10.6333 23.8915 10.4526 23.9823 10.2519 24.0381C10.0512 24.1008 9.84375 24.1286 9.63635 24.1286C9.32859 24.1286 9.02749 24.073 8.73306 23.9613C8.44537 23.8498 8.20449 23.6893 8.0105 23.4802L8.69965 22.755C8.80669 22.8944 8.9472 23.0059 9.12112 23.0966C9.29511 23.1872 9.4691 23.2361 9.63635 23.2361C9.71664 23.2361 9.7902 23.2291 9.86383 23.2081C9.93745 23.1943 10.0043 23.1663 10.0579 23.1246C10.1114 23.0897 10.1583 23.0338 10.1917 22.971C10.2251 22.9083 10.2385 22.8316 10.2385 22.7409C10.2385 22.6573 10.2185 22.5804 10.1783 22.5248C10.1382 22.462 10.0779 22.4131 10.0043 22.3644C9.93071 22.3156 9.83708 22.2736 9.72331 22.2318C9.60954 22.1901 9.48244 22.1482 9.34193 22.0993C9.20141 22.0505 9.06764 21.9948 8.93379 21.932C8.80002 21.8692 8.67958 21.7856 8.57921 21.6879C8.47211 21.5903 8.39189 21.4647 8.32493 21.3252C8.26471 21.1858 8.23124 21.0115 8.23124 20.8023C8.23124 20.5511 8.27812 20.3351 8.37848 20.1608C8.47885 19.9793 8.60596 19.8329 8.76654 19.7214C8.92713 19.6097 9.10778 19.5191 9.30845 19.4702C9.50918 19.4144 9.70991 19.3936 9.91737 19.3936C10.1649 19.3936 10.4125 19.4423 10.6667 19.533C10.921 19.6238 11.1484 19.7632 11.3358 19.9514L10.6667 20.6767Z" fill="black"/>
<path d="M16.3743 21.7437C16.3743 22.0993 16.3141 22.4271 16.1937 22.727C16.0733 23.0199 15.9127 23.2779 15.6986 23.487C15.4912 23.6964 15.237 23.8637 14.9492 23.9753C14.6615 24.0868 14.3469 24.1496 14.0058 24.1496C13.6645 24.1496 13.3568 24.0937 13.0623 23.9753C12.7746 23.8637 12.5271 23.6964 12.313 23.487C12.1056 23.2779 11.9383 23.0199 11.8179 22.727C11.6974 22.434 11.6372 22.1062 11.6372 21.7437C11.6372 21.381 11.6974 21.0533 11.8179 20.7604C11.9383 20.4675 12.0989 20.2234 12.313 20.0141C12.5204 19.8119 12.7746 19.6516 13.0623 19.5399C13.35 19.4283 13.6645 19.3726 14.0058 19.3726C14.3469 19.3726 14.6615 19.4283 14.9492 19.5399C15.237 19.6516 15.4912 19.8049 15.6986 20.0141C15.9059 20.2163 16.0733 20.4675 16.1937 20.7604C16.3141 21.0533 16.3743 21.381 16.3743 21.7437ZM15.2502 21.7437C15.2502 21.5484 15.2168 21.3671 15.1566 21.1927C15.0964 21.0253 15.0094 20.8789 14.9023 20.7533C14.7953 20.6349 14.6615 20.5372 14.5076 20.4675C14.3537 20.3977 14.1864 20.3629 13.999 20.3629C13.8118 20.3629 13.6512 20.3977 13.4973 20.4675C13.3434 20.5372 13.2162 20.6349 13.1025 20.7533C12.9954 20.872 12.9085 21.0184 12.8483 21.1927C12.788 21.3601 12.7613 21.5484 12.7613 21.7437C12.7613 21.9459 12.7947 22.1341 12.8549 22.3085C12.9152 22.4829 13.0022 22.6293 13.1092 22.7549C13.2162 22.8803 13.35 22.9779 13.4973 23.0477C13.6512 23.1174 13.8184 23.1524 13.999 23.1524C14.1798 23.1524 14.347 23.1174 14.5009 23.0477C14.6548 22.9779 14.7819 22.8803 14.8956 22.7549C15.0027 22.6293 15.0897 22.4829 15.1499 22.3085C15.2168 22.1341 15.2502 21.9459 15.2502 21.7437Z" fill="black"/>
<path d="M20.0611 23.9402C19.78 24.0727 19.4522 24.1424 19.0842 24.1424C18.7496 24.1424 18.4419 24.0865 18.1542 23.9681C17.8731 23.8564 17.6257 23.689 17.4182 23.4799C17.2108 23.2707 17.0435 23.0197 16.9297 22.7267C16.8093 22.4338 16.749 22.1131 16.749 21.7574C16.749 21.3947 16.8093 21.067 16.9297 20.7741C17.0503 20.4811 17.2174 20.2301 17.4315 20.0209C17.6456 19.8116 17.8933 19.6583 18.1809 19.5468C18.4687 19.4351 18.7764 19.3794 19.1042 19.3794C19.4121 19.3794 19.7131 19.4351 20.0075 19.5468C20.3019 19.6583 20.5428 19.8256 20.7302 20.0418L20.0141 20.781C19.9138 20.6416 19.7867 20.537 19.6261 20.4673C19.4655 20.3975 19.3049 20.3626 19.1377 20.3626C18.9571 20.3626 18.7831 20.3975 18.6293 20.4673C18.4753 20.537 18.3416 20.6346 18.2344 20.7602C18.1274 20.8857 18.0404 21.0322 17.9802 21.1995C17.9201 21.3669 17.8866 21.5551 17.8866 21.7504C17.8866 21.9527 17.9201 22.141 17.9802 22.3153C18.0404 22.4827 18.1274 22.6291 18.2344 22.7547C18.3416 22.8731 18.4753 22.9707 18.6225 23.0405C18.7764 23.1103 18.937 23.1451 19.1177 23.1451C19.325 23.1451 19.5058 23.1033 19.6596 23.0197C19.8135 22.9359 19.9406 22.8244 20.0343 22.6849L20.7636 23.4032C20.5763 23.6264 20.3422 23.8077 20.0611 23.9402Z" fill="black"/>
<path d="M22.7172 23.1241L24.41 21.534C24.5171 21.4294 24.6041 21.3179 24.6643 21.2064C24.7312 21.0947 24.7647 20.9761 24.7647 20.8368C24.7647 20.6763 24.7177 20.5438 24.6174 20.4462C24.5171 20.3485 24.3899 20.2997 24.2227 20.2997C24.0486 20.2997 23.9081 20.3625 23.8012 20.488C23.694 20.6135 23.6271 20.7808 23.6071 20.9831L22.6235 20.8436C22.6503 20.6135 22.7106 20.4112 22.8042 20.23C22.8979 20.0486 23.0184 19.8953 23.1655 19.7697C23.3128 19.6441 23.48 19.5465 23.674 19.4839C23.8614 19.4141 24.0621 19.3862 24.2763 19.3862C24.4769 19.3862 24.671 19.4141 24.8584 19.4698C25.0456 19.5257 25.2128 19.6093 25.3601 19.7279C25.5073 19.8394 25.6277 19.986 25.7147 20.1603C25.8017 20.3346 25.8485 20.5368 25.8485 20.774C25.8485 20.9344 25.8286 21.0808 25.7883 21.2133C25.7481 21.3457 25.6879 21.4643 25.621 21.576C25.5475 21.6875 25.4671 21.7921 25.3734 21.8828C25.2799 21.9804 25.1862 22.0709 25.0859 22.1686L24.0821 23.1032H25.8552V24.0377H22.7172V23.1241Z" fill="black"/>
<path d="M25.4536 17.3921H8.4187V17.5873H25.4536V17.3921Z" fill="black"/>
<path d="M3.5545 16.9526L3.54111 17.1269L2.08252 16.3249L2.0959 16.1714L3.66155 15.6206L3.64817 15.8018L3.24003 15.9414L3.1798 16.7573L3.5545 16.9526ZM3.03262 16.6805L3.08613 15.9832L2.25648 16.2622L3.03262 16.6805Z" fill="black"/>
<path d="M3.72194 15.2718L3.69518 15.4321L2.20312 15.195L2.22989 15.0347L3.72194 15.2718Z" fill="black"/>
<path d="M3.82226 13.5492C3.85571 13.584 3.88247 13.6259 3.90924 13.6678C3.936 13.7095 3.95608 13.7653 3.96946 13.8141C3.98285 13.8699 3.98954 13.9258 3.99623 13.9886C3.99623 14.0512 3.98954 14.114 3.97614 14.1837C3.94939 14.3023 3.90924 14.4 3.84902 14.4907C3.78881 14.5813 3.71521 14.651 3.62823 14.7068C3.54124 14.7626 3.44757 14.7976 3.34722 14.8114C3.24685 14.8253 3.13311 14.8253 3.02606 14.7976C2.919 14.7696 2.81194 14.7278 2.73165 14.6579C2.64468 14.5953 2.57777 14.5185 2.52423 14.4279C2.47072 14.3372 2.43725 14.2395 2.41719 14.135C2.39712 14.0304 2.40381 13.9188 2.43056 13.8002C2.44396 13.7444 2.46403 13.6887 2.4841 13.6398C2.51086 13.591 2.53762 13.5422 2.56439 13.5003C2.59784 13.4585 2.63129 13.4167 2.66475 13.3888C2.70489 13.3539 2.74504 13.333 2.78518 13.312L2.84541 13.4655C2.81863 13.4725 2.79187 13.4934 2.75843 13.5143C2.73165 13.5352 2.6982 13.5631 2.67145 13.591C2.64468 13.6259 2.6246 13.6608 2.59784 13.6956C2.57777 13.7374 2.56439 13.7793 2.55101 13.8281C2.53093 13.9258 2.52423 14.0234 2.54432 14.1071C2.56439 14.1977 2.59115 14.2744 2.638 14.3442C2.68482 14.4139 2.74504 14.4697 2.81194 14.5185C2.88555 14.5673 2.95915 14.6023 3.04613 14.623C3.13311 14.644 3.2201 14.651 3.30037 14.6371C3.38736 14.623 3.46096 14.6023 3.53456 14.5604C3.60816 14.5185 3.66837 14.4627 3.7219 14.393C3.77543 14.3233 3.80888 14.2395 3.83565 14.1419C3.85571 14.0512 3.85571 13.9676 3.84233 13.8769C3.82226 13.7863 3.78211 13.7095 3.7219 13.6398L3.82226 13.5492Z" fill="black"/>
<path d="M2.69141 12.9149L2.83191 12.4894C2.85867 12.4128 2.88544 12.35 2.92558 12.2873C2.95903 12.2314 2.99918 12.1826 3.04601 12.1548C3.09285 12.1198 3.14637 12.099 3.19991 12.092C3.25343 12.085 3.31365 12.092 3.38056 12.1129C3.44746 12.1338 3.50099 12.1687 3.54113 12.2105C3.58128 12.2524 3.60805 12.3012 3.62811 12.357C3.6482 12.4128 3.65489 12.4756 3.6482 12.5452C3.64149 12.615 3.62811 12.6847 3.60136 12.7615L3.51437 13.0265L4.18346 13.2636L4.13663 13.4169L2.69141 12.9149ZM3.38726 12.9916L3.47424 12.7335C3.51437 12.615 3.52106 12.5174 3.4943 12.4337C3.46754 12.357 3.41401 12.3012 3.32703 12.2733C3.24005 12.2384 3.15976 12.2524 3.09954 12.3012C3.03932 12.35 2.98581 12.4337 2.95234 12.5522L2.86536 12.8103L3.38726 12.9916Z" fill="black"/>
<path d="M4.45831 12.4197L4.39139 12.5801L3.26733 11.3179L3.32754 11.1714L4.98018 11.1853L4.91327 11.3458L4.47837 11.3388L4.1639 12.085L4.45831 12.4197ZM4.05685 11.9804L4.32449 11.3458L3.45466 11.3248L4.05685 11.9804Z" fill="black"/>
<path d="M4.63171 9.19787C4.5782 9.2048 4.52467 9.2188 4.47112 9.24666C4.4176 9.27452 4.37747 9.32338 4.3373 9.38617C4.31723 9.42103 4.30388 9.45589 4.2905 9.49775C4.27711 9.53954 4.27711 9.5814 4.27711 9.61626C4.28378 9.65812 4.2905 9.69298 4.31056 9.73484C4.33062 9.7697 4.36407 9.80456 4.40425 9.83242C4.44437 9.86035 4.48451 9.87428 4.51796 9.87428C4.55141 9.87428 4.59158 9.86735 4.62504 9.85335C4.65849 9.83942 4.69195 9.81849 4.7254 9.79063C4.75881 9.7627 4.79231 9.73484 4.82576 9.70691C4.86589 9.67205 4.91274 9.63026 4.95958 9.59533C5.00638 9.56047 5.05323 9.53261 5.10007 9.51168C5.14692 9.49075 5.20044 9.48375 5.26067 9.48375C5.31419 9.48375 5.37438 9.51168 5.44129 9.55347C5.5082 9.59533 5.55504 9.64412 5.5885 9.69991C5.62195 9.75577 5.64202 9.81156 5.64202 9.87428C5.64873 9.93707 5.64202 9.99286 5.62863 10.0557C5.61527 10.1184 5.58849 10.1742 5.55504 10.23C5.52826 10.2718 5.50153 10.3067 5.46807 10.3415C5.43462 10.3764 5.40116 10.4113 5.36103 10.4323C5.32086 10.4601 5.28073 10.481 5.24056 10.495C5.20044 10.5089 5.15359 10.5229 5.10675 10.5229L5.0934 10.3485C5.15359 10.3485 5.2205 10.3346 5.28073 10.2997C5.34093 10.2648 5.39448 10.216 5.43462 10.1463C5.45468 10.1114 5.46807 10.0765 5.48146 10.0347C5.49481 9.99286 5.49481 9.951 5.48813 9.90921C5.48146 9.86735 5.47474 9.82549 5.44801 9.79063C5.4279 9.75577 5.39448 9.72091 5.35432 9.69298C5.30747 9.66512 5.26734 9.65112 5.22717 9.65112C5.18704 9.65112 5.14692 9.65812 5.10675 9.67905C5.06662 9.69991 5.03316 9.72091 4.99304 9.74877C4.95958 9.7767 4.91941 9.81156 4.87928 9.84642C4.83911 9.88128 4.79898 9.91614 4.75881 9.951C4.71868 9.98586 4.67188 10.0068 4.62504 10.0207C4.57819 10.0347 4.52467 10.0417 4.47783 10.0417C4.42431 10.0347 4.37075 10.0138 4.31056 9.97886C4.25033 9.93707 4.20352 9.88821 4.17004 9.83942C4.14328 9.78363 4.12322 9.72784 4.11652 9.66512C4.10983 9.60233 4.11652 9.54654 4.13659 9.48375C4.14997 9.42796 4.17673 9.37217 4.20352 9.32338C4.25704 9.23273 4.31723 9.16301 4.39086 9.12115C4.45776 9.07929 4.52467 9.05136 4.58487 9.04443L4.63171 9.19787Z" fill="black"/>
<path d="M6.05698 8.44468C6.06365 8.45161 6.07037 8.45861 6.08376 8.46554C6.09043 8.47254 6.10382 8.47954 6.1105 8.4934L5.6154 9.19081C5.65552 9.21874 5.70237 9.2396 5.74921 9.2536C5.79602 9.26753 5.84287 9.26753 5.88971 9.26053C5.93655 9.2536 5.97668 9.2396 6.02352 9.21174C6.06365 9.18388 6.10382 9.15595 6.1306 9.10716C6.17741 9.04437 6.19747 8.98158 6.20419 8.91186C6.21086 8.84214 6.20419 8.78635 6.18412 8.73056L6.3179 8.6957C6.34468 8.79335 6.34468 8.884 6.33133 8.96065C6.3179 9.03744 6.28449 9.11409 6.23097 9.18388C6.18412 9.2466 6.13728 9.29539 6.07704 9.33025C6.01685 9.36518 5.95662 9.39304 5.88971 9.40004C5.8228 9.40704 5.75589 9.40704 5.68898 9.38611C5.62207 9.36518 5.55517 9.33725 5.49497 9.28846C5.43473 9.2396 5.38789 9.18388 5.34777 9.12809C5.31431 9.0653 5.28753 9.00258 5.27414 8.93279C5.26075 8.86307 5.26747 8.80028 5.28085 8.73056C5.29424 8.66084 5.32766 8.59805 5.36783 8.54226C5.41467 8.47954 5.46819 8.42368 5.52171 8.39582C5.58194 8.36096 5.63547 8.34003 5.69566 8.34003C5.75589 8.33303 5.81612 8.34003 5.87632 8.36096C5.94322 8.37489 5.99674 8.40275 6.05698 8.44468ZM5.92983 8.54226C5.84958 8.48647 5.76928 8.46554 5.68898 8.47254C5.60868 8.47954 5.5351 8.52833 5.46819 8.61898C5.44141 8.66084 5.42134 8.70263 5.40796 8.75149C5.39461 8.80028 5.39461 8.84214 5.40128 8.89093C5.40795 8.93979 5.42134 8.98158 5.44141 9.01644C5.46152 9.0583 5.48825 9.09323 5.52171 9.12109L5.92983 8.54226Z" fill="black"/>
<path d="M5.97036 7.98447C5.9369 7.95654 5.90345 7.92868 5.87671 7.90775L5.96368 7.8031C5.98375 7.81703 6.01052 7.83803 6.03727 7.85896C6.06404 7.87982 6.08411 7.90075 6.0975 7.91475C6.07072 7.85196 6.06405 7.78917 6.07072 7.71945C6.07743 7.64973 6.11089 7.58694 6.15769 7.53115C6.17108 7.51722 6.18447 7.50322 6.19115 7.48936C6.20453 7.47536 6.21126 7.46836 6.2246 7.46143L6.31829 7.57301C6.31161 7.58001 6.29822 7.58694 6.28484 7.60087C6.27145 7.61487 6.2581 7.6288 6.24467 7.64273C6.21793 7.67066 6.19787 7.70552 6.19115 7.74731C6.1778 7.78217 6.1778 7.8241 6.18447 7.86589C6.19115 7.90775 6.20453 7.94961 6.23132 7.9984C6.2581 8.04726 6.29822 8.08905 6.34503 8.13791L6.73312 8.48658L6.63942 8.60509L6.04398 8.07512C6.03059 8.03326 6.00381 8.01233 5.97036 7.98447Z" fill="black"/>
<path d="M6.24393 6.87552C6.26404 6.89644 6.27739 6.92435 6.27739 6.95226C6.27739 6.98013 6.27072 7.00807 6.25065 7.02893C6.23058 7.04986 6.21052 7.05686 6.18374 7.06386C6.15696 7.06386 6.13022 7.05686 6.11012 7.03593C6.09005 7.015 6.07666 6.98713 6.07666 6.95922C6.07666 6.93131 6.08338 6.90344 6.10344 6.88252C6.12351 6.86157 6.14361 6.85461 6.17035 6.84766C6.19713 6.84766 6.22387 6.85461 6.24393 6.87552ZM7.23416 7.88671L7.1338 7.99829L6.40453 7.28002L6.5049 7.16844L7.23416 7.88671Z" fill="black"/>
<path d="M7.77687 7.32875L7.6631 7.44733L6.67285 6.98705L6.79329 6.86848L7.61629 7.27296L7.26831 6.39428L7.38208 6.28271L7.77687 7.32875Z" fill="black"/>
<path d="M8.25166 5.84351C8.21151 5.82956 8.15803 5.82956 8.11115 5.83651C8.05766 5.85047 8.01078 5.87138 7.9707 5.90625C7.92382 5.94812 7.89041 5.98994 7.87034 6.03877C7.85026 6.08759 7.83686 6.13638 7.83012 6.1852C7.83012 6.23403 7.83686 6.28981 7.85026 6.33863C7.87034 6.38746 7.89708 6.43628 7.93049 6.48506C7.96397 6.53389 8.00411 6.56876 8.05099 6.59667C8.09774 6.62454 8.14462 6.63849 8.19144 6.65245C8.23832 6.65945 8.29181 6.65945 8.33869 6.64545C8.3855 6.63153 8.43232 6.60363 8.47913 6.56876C8.52601 6.52693 8.56616 6.47811 8.5795 6.42928C8.59957 6.38046 8.60631 6.33168 8.60631 6.28285L8.74015 6.27589C8.74015 6.34559 8.72674 6.41533 8.69994 6.48506C8.67319 6.5548 8.62638 6.61063 8.55949 6.67336C8.49921 6.72914 8.43232 6.76406 8.36543 6.78497C8.29847 6.80588 8.23159 6.81284 8.1647 6.80588C8.09781 6.79888 8.03759 6.77797 7.97737 6.7431C7.91715 6.70823 7.8636 6.65945 7.81679 6.59667C7.76997 6.53389 7.73649 6.47115 7.71642 6.40141C7.69635 6.33168 7.68968 6.26194 7.69635 6.1922C7.70302 6.12246 7.72309 6.05968 7.75657 5.98994C7.79004 5.92716 7.83686 5.86443 7.90375 5.80864C7.9573 5.76678 8.01752 5.73191 8.09107 5.71099C8.1647 5.69008 8.23159 5.68313 8.30521 5.70404L8.25166 5.84351Z" fill="black"/>
<path d="M9.4161 5.28556C9.42277 5.29252 9.42951 5.30647 9.43617 5.31342C9.44284 5.32038 9.44958 5.33434 9.45625 5.34829L8.77383 5.83646C8.80057 5.87828 8.84072 5.91315 8.88086 5.94107C8.92101 5.96893 8.96116 5.98289 9.00797 5.99684C9.05479 6.00384 9.10167 6.00384 9.14848 5.99684C9.19536 5.98989 9.24218 5.96893 9.28232 5.93407C9.34248 5.89224 9.38936 5.83646 9.4161 5.77367C9.44284 5.71094 9.44958 5.65512 9.44958 5.59237L9.59009 5.59933C9.58342 5.69698 9.56335 5.78763 9.52314 5.85737C9.48306 5.92711 9.42951 5.98989 9.36262 6.03867C9.3024 6.08054 9.23544 6.11541 9.16856 6.12937C9.10167 6.14327 9.03471 6.14327 8.96782 6.12937C8.90094 6.11541 8.84072 6.08749 8.7805 6.05262C8.72028 6.0108 8.67346 5.96197 8.62658 5.89924C8.58644 5.83646 8.55296 5.76672 8.53962 5.69698C8.52622 5.62724 8.51955 5.55751 8.53295 5.48777C8.54629 5.41803 8.56636 5.35525 8.59984 5.29947C8.63332 5.24369 8.68013 5.18791 8.74035 5.14604C8.80724 5.09726 8.86746 5.06934 8.93435 5.05539C9.0013 5.04143 9.06152 5.04143 9.12174 5.05539C9.18196 5.06934 9.23544 5.09726 9.28899 5.13908C9.33581 5.17395 9.38269 5.22277 9.4161 5.28556ZM9.26892 5.32738C9.2087 5.25064 9.14175 5.20187 9.06152 5.18095C8.98123 5.15999 8.89427 5.18095 8.80724 5.24369C8.76709 5.2716 8.73362 5.30647 8.71361 5.34829C8.6868 5.39012 8.67346 5.43199 8.66673 5.47382C8.65999 5.51568 8.65999 5.56447 8.66673 5.60633C8.67346 5.64816 8.6868 5.69002 8.71361 5.73185L9.26892 5.32738Z" fill="black"/>
<path d="M11.4164 3.89783C11.4699 4.00941 11.4967 4.11402 11.5034 4.2256C11.51 4.33718 11.4967 4.4418 11.4632 4.53941C11.4298 4.63706 11.3829 4.72771 11.3094 4.8114C11.2424 4.89509 11.1555 4.95783 11.0551 5.01361C10.9547 5.06244 10.8544 5.09731 10.7473 5.10431C10.6403 5.11126 10.5466 5.09731 10.4462 5.06244C10.3525 5.02756 10.2656 4.97874 10.1853 4.90205C10.105 4.83231 10.0448 4.74166 9.99122 4.6301C9.93773 4.51849 9.91092 4.41389 9.90425 4.30231C9.89759 4.19073 9.91092 4.08612 9.9444 3.98849C9.97788 3.89086 10.0247 3.8002 10.0983 3.71651C10.1652 3.63284 10.2522 3.57007 10.3525 3.51428C10.4529 3.46547 10.5533 3.43061 10.6604 3.42362C10.7674 3.41664 10.861 3.43061 10.9614 3.46547C11.0551 3.50033 11.1421 3.54915 11.2223 3.62585C11.3026 3.70257 11.3695 3.79323 11.4164 3.89783ZM11.2692 3.97455C11.2291 3.89086 11.1822 3.82111 11.122 3.75836C11.0618 3.69559 10.9949 3.64679 10.9146 3.61888C10.841 3.58402 10.7607 3.57007 10.6737 3.57705C10.5867 3.57705 10.4997 3.60493 10.4128 3.64679C10.3258 3.68862 10.2522 3.75139 10.1986 3.81415C10.1451 3.88388 10.105 3.9606 10.0849 4.03732C10.0648 4.12099 10.0582 4.20467 10.0648 4.28836C10.0716 4.37901 10.0983 4.46271 10.1385 4.54641C10.1786 4.6301 10.2254 4.69979 10.2856 4.76257C10.3459 4.82531 10.4128 4.86718 10.4864 4.90205C10.56 4.92996 10.6403 4.95087 10.7273 4.94391C10.8142 4.94391 10.9012 4.91601 10.9882 4.87414C11.0752 4.83231 11.1488 4.76953 11.2023 4.70679C11.2558 4.63706 11.296 4.56036 11.316 4.48362C11.3361 4.39993 11.3428 4.31625 11.3361 4.23258C11.3361 4.14192 11.3094 4.05823 11.2692 3.97455Z" fill="black"/>
<path d="M11.6772 3.66774C11.6638 3.6259 11.6437 3.59104 11.6304 3.55617L11.7575 3.50736C11.7708 3.53524 11.7842 3.56313 11.7976 3.59104C11.811 3.6259 11.8177 3.64682 11.8311 3.66774H11.8378C11.8444 3.59801 11.8645 3.53524 11.9047 3.47946C11.9448 3.42367 11.9984 3.38183 12.0652 3.35392C12.0853 3.34695 12.0987 3.33998 12.1121 3.33998C12.1255 3.33301 12.1388 3.33301 12.1589 3.33301L12.1924 3.47249C12.1857 3.47249 12.1723 3.47249 12.1522 3.47946C12.1321 3.48643 12.1121 3.49341 12.092 3.50038C12.0586 3.51433 12.0251 3.53524 11.9984 3.56313C11.9715 3.59104 11.9515 3.6259 11.9381 3.66077C11.9247 3.70262 11.9181 3.74445 11.9181 3.80025C11.9181 3.85603 11.9314 3.91183 11.9582 3.9746L12.1388 4.47669L12.005 4.53247L11.7173 3.76538C11.7107 3.74445 11.6973 3.70959 11.6772 3.66774Z" fill="black"/>
<path d="M12.7613 4.45582C12.8149 4.49769 12.8818 4.52556 12.9554 4.53952C13.0289 4.55347 13.1092 4.55347 13.1829 4.52556C13.2497 4.50465 13.3033 4.47673 13.3501 4.44191C13.3903 4.407 13.4237 4.36517 13.4437 4.32332C13.4638 4.28149 13.4705 4.23268 13.4705 4.17688C13.4705 4.12807 13.4638 4.07228 13.4505 4.01648L13.3903 3.8282H13.3835C13.3635 3.9049 13.3234 3.96767 13.2698 4.02345C13.2096 4.07925 13.1494 4.11411 13.0758 4.14202C13.0022 4.16294 12.9286 4.17688 12.8617 4.16991C12.7947 4.16294 12.7346 4.14202 12.6743 4.11412C12.6208 4.07925 12.5673 4.03741 12.5271 3.98162C12.487 3.92583 12.4536 3.86307 12.4335 3.78635C12.4134 3.71661 12.4067 3.64688 12.4134 3.57715C12.4201 3.5074 12.4402 3.44465 12.4669 3.38188C12.4936 3.31912 12.5405 3.2703 12.594 3.22148C12.6476 3.17267 12.7145 3.1378 12.7881 3.11687C12.855 3.09596 12.9286 3.08898 13.0089 3.10293C13.0825 3.11687 13.1494 3.15175 13.2096 3.20056H13.2163L13.1695 3.02623L13.3099 2.98438L13.591 3.97464C13.6043 4.03044 13.6178 4.08622 13.6178 4.15597C13.6178 4.21872 13.6111 4.28846 13.5843 4.35123C13.5575 4.414 13.5174 4.47673 13.4638 4.52556C13.4036 4.58134 13.3234 4.62321 13.2163 4.65807C13.1293 4.68595 13.0357 4.69295 12.9487 4.68595C12.855 4.67203 12.7747 4.64412 12.7011 4.6023L12.7613 4.45582ZM12.5807 3.73057C12.594 3.78635 12.6208 3.8282 12.6476 3.87004C12.6743 3.91187 12.7145 3.94676 12.7547 3.97464C12.7947 4.00254 12.8416 4.01648 12.8951 4.02345C12.9487 4.03044 13.0022 4.02346 13.0557 4.00951C13.1092 3.99557 13.1561 3.96767 13.1962 3.93281C13.2364 3.89793 13.2698 3.86307 13.29 3.81425C13.3099 3.76543 13.33 3.72359 13.33 3.66781C13.3368 3.61201 13.33 3.55623 13.3099 3.50043C13.2966 3.44465 13.2698 3.4028 13.2364 3.36096C13.2029 3.31911 13.1695 3.28425 13.1226 3.26332C13.0825 3.23544 13.0357 3.22148 12.9821 3.21451C12.9286 3.20754 12.8818 3.21451 12.8282 3.22846C12.768 3.24938 12.7212 3.2703 12.681 3.30516C12.6409 3.34004 12.6141 3.38188 12.594 3.42372C12.574 3.46557 12.5606 3.51438 12.5606 3.57017C12.5606 3.62595 12.5673 3.68175 12.5807 3.73057Z" fill="black"/>
<path d="M14.3741 3.1168C14.354 3.02615 14.3205 2.97035 14.2669 2.93549C14.2135 2.90061 14.1466 2.89364 14.0596 2.91455C13.9993 2.92852 13.9458 2.94944 13.8989 2.9843C13.8521 3.01916 13.8187 3.05404 13.7852 3.09588L13.6848 3.01219C13.7183 2.96338 13.7652 2.91455 13.8255 2.87272C13.8855 2.83088 13.9592 2.80298 14.0461 2.78206C14.0997 2.76811 14.1532 2.76811 14.2 2.77509C14.2469 2.78206 14.2937 2.79601 14.3338 2.81693C14.3741 2.83786 14.4076 2.87272 14.441 2.91455C14.4676 2.95641 14.4877 3.01219 14.5012 3.07496L14.5881 3.52126C14.5948 3.56312 14.6082 3.59799 14.6149 3.63984C14.6282 3.68167 14.635 3.71653 14.6484 3.74444L14.5212 3.77233C14.5145 3.75141 14.5012 3.72351 14.4944 3.69561C14.4877 3.66773 14.4811 3.63984 14.4744 3.61193H14.4676C14.4342 3.68864 14.3941 3.75141 14.3473 3.79325C14.2937 3.8351 14.2335 3.86299 14.1533 3.88391C14.1131 3.89088 14.0729 3.89785 14.0328 3.89088C13.9926 3.89088 13.9526 3.87694 13.9124 3.86299C13.8722 3.84207 13.8387 3.82114 13.812 3.78628C13.7852 3.75141 13.7652 3.70259 13.7517 3.6468C13.7384 3.57009 13.745 3.50035 13.7719 3.44457C13.7986 3.38877 13.8454 3.34694 13.9056 3.31206C13.9659 3.2772 14.0395 3.24233 14.1198 3.2214C14.2 3.20048 14.2871 3.17259 14.3741 3.15864V3.1168ZM14.3606 3.2772C14.3004 3.29114 14.2401 3.30508 14.1867 3.31904C14.1265 3.33997 14.0729 3.36088 14.0328 3.3818C13.986 3.40969 13.9526 3.43759 13.9258 3.47246C13.8989 3.50733 13.8923 3.54917 13.8989 3.59799C13.9056 3.63286 13.9192 3.66075 13.9391 3.68864C13.9592 3.70956 13.9792 3.72351 14.006 3.73747C14.0328 3.75141 14.0596 3.75141 14.0863 3.75141C14.1131 3.75141 14.1398 3.75141 14.1732 3.74444C14.2268 3.73049 14.2669 3.71653 14.3004 3.68864C14.3338 3.66075 14.3673 3.63286 14.3874 3.59101C14.4076 3.55615 14.4208 3.51429 14.4275 3.47246C14.4342 3.43062 14.4342 3.3818 14.4208 3.33997L14.4076 3.26325L14.3606 3.2772Z" fill="black"/>
<path d="M14.9493 2.64221C14.956 2.67011 14.9628 2.698 14.9694 2.73288C14.976 2.76774 14.976 2.79563 14.9828 2.81655H14.9894C15.0095 2.75379 15.0496 2.698 15.1099 2.64919C15.1701 2.60037 15.237 2.57944 15.3039 2.5655C15.431 2.55155 15.5314 2.57944 15.5983 2.64919C15.6718 2.71891 15.7121 2.81655 15.7254 2.94906L15.799 3.58366L15.6518 3.60457L15.585 3.03274C15.5783 2.97695 15.5715 2.92814 15.5581 2.88629C15.5448 2.84445 15.5247 2.80957 15.5046 2.77471C15.4779 2.74681 15.4511 2.7259 15.4109 2.71194C15.3775 2.698 15.3307 2.698 15.2771 2.698C15.237 2.70497 15.2036 2.71194 15.1701 2.73288C15.1367 2.75379 15.1032 2.78168 15.0831 2.81655C15.0563 2.85142 15.043 2.90023 15.0296 2.94906C15.0162 3.00483 15.0162 3.06064 15.0228 3.13037L15.0831 3.66038L14.9359 3.68129L14.8423 2.87234C14.8423 2.84445 14.8356 2.80957 14.8288 2.76077C14.8221 2.71891 14.8155 2.67707 14.8088 2.64221H14.9493Z" fill="black"/>
<path d="M16.2002 2.11925C16.2002 2.14714 16.1935 2.17505 16.1734 2.19596C16.1534 2.21689 16.1333 2.23083 16.1065 2.23083C16.0799 2.23083 16.0597 2.22386 16.033 2.20293C16.0129 2.18202 15.9995 2.1611 15.9995 2.12623C15.9995 2.09833 16.0062 2.07044 16.0263 2.04951C16.0464 2.02859 16.0664 2.01465 16.0932 2.01465C16.12 2.01465 16.14 2.02162 16.1668 2.04254C16.1869 2.06347 16.2002 2.09136 16.2002 2.11925ZM16.2538 3.56979L16.1065 3.57676L16.0531 2.5307L16.2002 2.52372L16.2538 3.56979Z" fill="black"/>
<path d="M17.2373 2.60767L16.6484 3.42359L17.2707 3.40965V3.54216L16.4543 3.5561V3.4515L17.0365 2.62859L16.4678 2.63558V2.51004L17.2306 2.49609L17.2373 2.60767Z" fill="black"/>
<path d="M18.1674 2.92819C18.1742 2.83752 18.154 2.7678 18.1139 2.71897C18.0738 2.67017 18.0069 2.64226 17.9199 2.63529C17.8597 2.62831 17.8061 2.63529 17.7527 2.65622C17.6991 2.67713 17.6523 2.69806 17.6188 2.73292L17.5452 2.62831C17.592 2.58648 17.6455 2.55859 17.7124 2.53068C17.7793 2.50976 17.8597 2.49582 17.9467 2.50279C18.0001 2.50976 18.0537 2.51673 18.0938 2.53766C18.1407 2.55859 18.1808 2.58648 18.2142 2.61436C18.2477 2.64923 18.2745 2.69108 18.2879 2.73989C18.3079 2.78871 18.3079 2.8445 18.3079 2.90726L18.2745 3.36056C18.2745 3.4024 18.2679 3.44423 18.2679 3.48609C18.2679 3.52793 18.2679 3.5628 18.2745 3.59767L18.1474 3.59069C18.1474 3.5628 18.1407 3.5349 18.1407 3.507C18.1407 3.47911 18.1407 3.45121 18.1407 3.41635H18.1339C18.0805 3.48609 18.0269 3.52793 17.9666 3.55583C17.9064 3.58372 17.8395 3.59069 17.7527 3.58372C17.7124 3.58372 17.6723 3.56977 17.6322 3.55583C17.592 3.54186 17.5586 3.52095 17.5252 3.49306C17.4917 3.46517 17.4649 3.43029 17.4515 3.38845C17.4315 3.3466 17.4248 3.29779 17.4315 3.242C17.4381 3.15833 17.4583 3.10253 17.5051 3.05372C17.5452 3.01187 17.5987 2.97701 17.6723 2.96306C17.7392 2.94213 17.8129 2.93515 17.8998 2.93515C17.9868 2.93515 18.0738 2.93515 18.1674 2.94213V2.92819ZM18.1139 3.07464C18.0537 3.06766 17.9935 3.06766 17.9332 3.06766C17.873 3.06766 17.8195 3.07464 17.766 3.08859C17.7124 3.10253 17.6723 3.12345 17.6388 3.14437C17.6054 3.17227 17.5852 3.20714 17.5852 3.25596C17.5852 3.29082 17.5852 3.32568 17.5987 3.35359C17.612 3.38148 17.6255 3.4024 17.6523 3.41635C17.6723 3.43029 17.6991 3.44423 17.7258 3.45819C17.7527 3.47214 17.7793 3.47214 17.8129 3.47214C17.8663 3.47911 17.9132 3.47214 17.9534 3.45121C17.9935 3.43726 18.0269 3.40937 18.0603 3.38148C18.0871 3.35359 18.1139 3.31871 18.1273 3.27688C18.1474 3.23503 18.154 3.19319 18.154 3.14437L18.1607 3.06766L18.1139 3.07464Z" fill="black"/>
<path d="M19.151 2.80966L18.87 2.76781L18.7896 3.37452C18.783 3.41638 18.783 3.44427 18.7896 3.47216C18.7964 3.50007 18.8031 3.52098 18.8097 3.53493C18.8231 3.54887 18.8366 3.56282 18.8566 3.56979C18.8766 3.57677 18.8968 3.58375 18.9168 3.58375C18.9369 3.58375 18.957 3.58375 18.9837 3.58375C19.0037 3.58375 19.0305 3.57677 19.0507 3.56979L19.0372 3.7023C19.0104 3.70928 18.9837 3.71625 18.957 3.71625C18.9302 3.71625 18.8968 3.71625 18.8633 3.70928C18.8366 3.7023 18.8097 3.69533 18.783 3.68836C18.7562 3.6744 18.7295 3.66045 18.7027 3.63256C18.6826 3.61164 18.6626 3.57677 18.6492 3.5419C18.6358 3.50703 18.6358 3.45821 18.6425 3.40243L18.7227 2.75387L18.5154 2.72598L18.5287 2.60046L18.7362 2.62835L18.7763 2.33545L18.9236 2.35637L18.8833 2.64927L19.1644 2.69111L19.151 2.80966Z" fill="black"/>
<path d="M19.372 3.77929L19.2314 3.75138L19.4055 2.71928L19.5459 2.74716L19.372 3.77929ZM19.6396 2.36362C19.633 2.39152 19.6195 2.4194 19.5928 2.43335C19.5661 2.44729 19.5459 2.45427 19.5192 2.44729C19.4925 2.44033 19.4724 2.42638 19.4522 2.40546C19.4322 2.38454 19.4255 2.35665 19.4322 2.32177C19.4389 2.29388 19.4522 2.26599 19.4791 2.25203C19.5059 2.23809 19.5259 2.23111 19.5526 2.23809C19.5794 2.24506 19.5996 2.25902 19.6195 2.27994C19.6396 2.30085 19.6463 2.32875 19.6396 2.36362Z" fill="black"/>
<path d="M20.7702 3.57711C20.7502 3.65381 20.7234 3.72355 20.6833 3.77934C20.643 3.83513 20.5962 3.88395 20.536 3.91882C20.4758 3.95368 20.4156 3.97461 20.342 3.98856C20.2685 4.0025 20.2015 3.99552 20.1211 3.97461C20.0476 3.95368 19.9807 3.92578 19.9205 3.88395C19.8602 3.8421 19.8201 3.78632 19.78 3.73053C19.7466 3.66777 19.7198 3.605 19.7131 3.53526C19.6996 3.46553 19.7063 3.38881 19.7264 3.31211C19.7466 3.23539 19.7732 3.16566 19.8134 3.10986C19.8535 3.05407 19.9003 3.00526 19.9606 2.9704C20.0208 2.93551 20.0811 2.9146 20.1546 2.90065C20.2215 2.89368 20.2952 2.89368 20.3754 2.9146C20.449 2.93551 20.5159 2.96342 20.5761 3.00526C20.6364 3.0471 20.6765 3.10289 20.7167 3.15869C20.7502 3.22144 20.7768 3.28421 20.7836 3.35394C20.797 3.42368 20.7903 3.50039 20.7702 3.57711ZM20.623 3.53526C20.6364 3.47948 20.643 3.42368 20.6364 3.3679C20.6297 3.31211 20.6162 3.26329 20.5962 3.22144C20.5761 3.1796 20.5427 3.13776 20.5026 3.10289C20.4625 3.06803 20.4156 3.0471 20.3554 3.03315C20.2952 3.01921 20.2416 3.01921 20.1947 3.02618C20.1413 3.03315 20.1011 3.05407 20.0609 3.08198C20.0208 3.10986 19.9874 3.14473 19.9539 3.19355C19.9272 3.24236 19.9003 3.29118 19.8937 3.34697C19.8803 3.40276 19.8736 3.45856 19.8803 3.51434C19.887 3.57014 19.9003 3.61895 19.9205 3.6608C19.9406 3.70263 19.974 3.74447 20.0142 3.77934C20.0543 3.81421 20.1011 3.83513 20.1613 3.84908C20.2215 3.86303 20.2751 3.86303 20.3219 3.85605C20.3754 3.84908 20.4156 3.82815 20.4558 3.80026C20.4959 3.77237 20.5293 3.7375 20.5628 3.68869C20.5896 3.64683 20.6096 3.59106 20.623 3.53526Z" fill="black"/>
<path d="M21.3321 3.21435C21.3255 3.24223 21.3187 3.27013 21.312 3.30499C21.3053 3.33987 21.292 3.36776 21.2852 3.38868H21.2921C21.3388 3.33987 21.399 3.31198 21.4726 3.29802C21.5461 3.28407 21.613 3.29105 21.6801 3.31198C21.8004 3.35381 21.8808 3.42356 21.9143 3.52119C21.9477 3.61883 21.9477 3.72343 21.9076 3.84895L21.7067 4.45566L21.5663 4.40684L21.747 3.8629C21.767 3.81409 21.7737 3.76527 21.7805 3.71646C21.7871 3.6746 21.7871 3.63276 21.7737 3.59092C21.767 3.55606 21.747 3.52119 21.7202 3.49329C21.6934 3.46539 21.6533 3.44448 21.6064 3.42356C21.5729 3.40961 21.5329 3.40262 21.4927 3.40961C21.4526 3.40961 21.4124 3.42356 21.3789 3.44448C21.3388 3.46539 21.3053 3.50025 21.2719 3.54211C21.2384 3.58395 21.2116 3.63974 21.1916 3.7025L21.0243 4.21159L20.8838 4.16277L21.1381 3.38868C21.1448 3.36079 21.1581 3.32593 21.1715 3.28407C21.1849 3.24223 21.1916 3.20039 21.205 3.16553L21.3321 3.21435Z" fill="black"/>
<path d="M23.7541 5.17398C23.7138 5.1949 23.667 5.21581 23.6202 5.22977C23.5733 5.24372 23.5197 5.25068 23.4663 5.25068C23.4128 5.25068 23.3525 5.24372 23.2991 5.22977C23.2388 5.21581 23.1786 5.1949 23.1184 5.16003C23.018 5.10425 22.931 5.03451 22.8641 4.95082C22.7972 4.86712 22.7436 4.77647 22.7169 4.67887C22.6835 4.58122 22.6767 4.47661 22.6835 4.36504C22.6902 4.25346 22.7236 4.14885 22.7771 4.03727C22.8306 3.93267 22.8975 3.84201 22.9779 3.77227C23.0581 3.70252 23.1451 3.64674 23.2388 3.61885C23.3325 3.58398 23.4328 3.577 23.5399 3.58398C23.6469 3.59095 23.7473 3.62583 23.8477 3.67463C23.8945 3.70252 23.9413 3.73043 23.9882 3.76529C24.0283 3.80016 24.0684 3.84201 24.1019 3.88385C24.1355 3.92569 24.1621 3.96753 24.1822 4.01634C24.2023 4.06516 24.2156 4.107 24.2223 4.15582L24.0617 4.18371C24.0617 4.15582 24.0484 4.12096 24.0418 4.08608C24.0283 4.05121 24.0083 4.01634 23.9882 3.98147C23.9681 3.94661 23.9346 3.91174 23.9078 3.88385C23.8744 3.85595 23.8409 3.82806 23.7942 3.80016C23.7071 3.75135 23.6202 3.73043 23.5332 3.72346C23.4462 3.71649 23.3659 3.73043 23.2923 3.76529C23.2187 3.79318 23.1451 3.84201 23.0849 3.90476C23.0247 3.96753 22.9711 4.03727 22.931 4.12096C22.8909 4.20463 22.8641 4.28832 22.8574 4.37896C22.8441 4.46965 22.8508 4.5533 22.8707 4.637C22.8909 4.72069 22.931 4.79738 22.9846 4.86712C23.0381 4.93686 23.105 4.99264 23.1919 5.04147C23.2723 5.08333 23.3525 5.10425 23.4395 5.1112C23.5265 5.1182 23.6134 5.09029 23.6938 5.04847L23.7541 5.17398Z" fill="black"/>
<path d="M24.9182 5.64801C24.878 5.71775 24.8245 5.76657 24.771 5.8084C24.7108 5.85027 24.6505 5.87814 24.5904 5.8921C24.5234 5.90605 24.4565 5.90605 24.3896 5.8921C24.3227 5.87814 24.2491 5.85027 24.1889 5.80145C24.122 5.75962 24.0684 5.7038 24.0283 5.64801C23.9882 5.58527 23.9614 5.5225 23.948 5.45276C23.9346 5.38302 23.9346 5.31328 23.948 5.24355C23.9614 5.17381 23.9882 5.10407 24.0283 5.03433C24.0684 4.97155 24.1153 4.91577 24.1756 4.87395C24.2358 4.83212 24.2959 4.80421 24.3561 4.79025C24.4231 4.7763 24.4899 4.7763 24.557 4.79025C24.6239 4.80421 24.6907 4.83212 24.7577 4.87395C24.8245 4.91577 24.878 4.97155 24.9182 5.03433C24.9584 5.09711 24.9851 5.15985 24.9985 5.22959C25.0119 5.29932 25.0119 5.36906 24.9985 5.4388C24.9851 5.50854 24.9584 5.57827 24.9182 5.64801ZM24.7911 5.55736C24.8245 5.50854 24.8445 5.45971 24.8513 5.40393C24.8647 5.34815 24.8647 5.29932 24.858 5.2505C24.8513 5.20172 24.8312 5.1529 24.8044 5.10407C24.7776 5.05525 24.7375 5.02037 24.6907 4.98551C24.6439 4.95064 24.5904 4.92972 24.5435 4.92272C24.4899 4.91577 24.4431 4.91577 24.3964 4.92972C24.3494 4.94368 24.3027 4.9646 24.2625 4.99946C24.2223 5.03433 24.1822 5.07616 24.1554 5.12498C24.122 5.17381 24.1018 5.22263 24.0952 5.27841C24.0819 5.3342 24.0819 5.38302 24.0886 5.43185C24.0952 5.48067 24.1153 5.52945 24.1421 5.57132C24.1689 5.61315 24.209 5.65501 24.2557 5.68984C24.3027 5.72471 24.3561 5.74566 24.4031 5.75262C24.4565 5.75962 24.5034 5.75962 24.5502 5.74566C24.5971 5.73171 24.6439 5.7108 24.6839 5.67592C24.7242 5.64801 24.7577 5.60619 24.7911 5.55736Z" fill="black"/>
<path d="M25.5605 5.49495C25.5471 5.51586 25.5271 5.54377 25.5069 5.57168C25.4868 5.59955 25.4735 5.62046 25.4602 5.64142H25.4668C25.5271 5.61351 25.5939 5.59955 25.6675 5.61351C25.7411 5.62746 25.8079 5.65538 25.8616 5.6972C25.9619 5.7809 26.0155 5.87155 26.0155 5.97616C26.0221 6.08076 25.982 6.17836 25.9083 6.28297L25.5271 6.78509L25.4133 6.69444L25.7545 6.24115C25.788 6.19932 25.8146 6.15746 25.8348 6.11563C25.8549 6.07376 25.8682 6.03193 25.8682 5.99706C25.8682 5.95524 25.8616 5.92037 25.8482 5.8855C25.8281 5.85063 25.8013 5.81576 25.7612 5.7809C25.7277 5.75298 25.6943 5.73903 25.6608 5.72507C25.6206 5.71116 25.5805 5.71116 25.5404 5.71811C25.5002 5.72507 25.4534 5.74603 25.4133 5.7739C25.3665 5.80181 25.3262 5.84363 25.2861 5.89941L24.9716 6.32484L24.8579 6.23415L25.3397 5.5926C25.353 5.57168 25.3798 5.54377 25.3999 5.50195C25.4266 5.46708 25.4467 5.43221 25.4668 5.4043L25.5605 5.49495Z" fill="black"/>
<path d="M26.685 6.64542L26.4777 6.45016L26.0896 6.90341C26.0628 6.93133 26.0495 6.95924 26.0361 6.98015C26.0227 7.00109 26.0227 7.02895 26.0227 7.04295C26.0227 7.06388 26.0294 7.08474 26.0429 7.09874C26.0561 7.1126 26.0695 7.1336 26.0829 7.14753C26.0963 7.16146 26.1164 7.17539 26.1364 7.18239C26.1565 7.19632 26.1766 7.20332 26.1966 7.21025L26.1164 7.3149C26.0896 7.3079 26.0628 7.29397 26.0429 7.27304C26.0161 7.25911 25.9959 7.23818 25.9691 7.21725C25.9492 7.19632 25.929 7.17539 25.9157 7.14753C25.8956 7.1196 25.8889 7.09174 25.8822 7.05688C25.8754 7.02195 25.8822 6.98711 25.8889 6.95224C25.9022 6.91737 25.9224 6.87555 25.9624 6.83372L26.3774 6.34556L26.2234 6.19909L26.3037 6.10148L26.4575 6.24791L26.6449 6.03174L26.752 6.13635L26.5647 6.35251L26.7721 6.54777L26.685 6.64542Z" fill="black"/>
<path d="M26.8658 6.81282C26.8925 6.77794 26.9193 6.75008 26.946 6.72217L27.0397 6.82677C27.0197 6.84768 27.0063 6.87559 26.9795 6.89651C26.9594 6.92442 26.9392 6.94534 26.926 6.95924C26.9862 6.93834 27.0531 6.93138 27.12 6.94533C27.1869 6.95924 27.2471 6.99416 27.2939 7.04996C27.3074 7.06389 27.3207 7.07789 27.3273 7.09175C27.3341 7.10575 27.3475 7.11968 27.3542 7.13361L27.2404 7.22426C27.2338 7.21726 27.227 7.2034 27.2137 7.1894C27.2003 7.17547 27.1869 7.15454 27.1736 7.14061C27.1468 7.11268 27.1134 7.09175 27.0799 7.07789C27.0464 7.06389 27.0063 7.05689 26.9661 7.05689C26.926 7.05689 26.8858 7.07089 26.8389 7.09875C26.7921 7.11968 26.7452 7.16154 26.6984 7.21033L26.3372 7.58693L26.2368 7.48235L26.7855 6.90347C26.8123 6.87559 26.8323 6.84768 26.8658 6.81282Z" fill="black"/>
<path d="M27.7624 8.42359C27.7021 8.47245 27.6419 8.51424 27.575 8.53517C27.5081 8.5561 27.4411 8.57003 27.3742 8.5631C27.3072 8.5561 27.2403 8.5421 27.1802 8.50731C27.12 8.47245 27.0597 8.42359 27.0062 8.3608C26.9527 8.29808 26.9192 8.23529 26.8925 8.16557C26.8724 8.09585 26.8591 8.02606 26.8657 7.95634C26.8724 7.88662 26.8858 7.8169 26.9192 7.75411C26.9527 7.69132 26.9929 7.6286 27.0531 7.57981C27.1132 7.53095 27.1734 7.48909 27.2403 7.46816C27.3072 7.4473 27.3742 7.4333 27.4411 7.4403C27.5081 7.4473 27.575 7.46123 27.6352 7.49609C27.6954 7.53095 27.7556 7.57981 27.8024 7.6356C27.8559 7.69832 27.8895 7.76111 27.9161 7.83083C27.9362 7.90055 27.9496 7.97027 27.9429 8.04006C27.9362 8.10978 27.9229 8.1795 27.8895 8.24222C27.8693 8.31201 27.8224 8.3748 27.7624 8.42359ZM27.6619 8.30501C27.7021 8.27015 27.7356 8.22136 27.7624 8.1795C27.789 8.13071 27.8024 8.08185 27.8091 8.03306C27.8158 7.98427 27.8091 7.92841 27.7958 7.87962C27.7823 7.83083 27.7556 7.78197 27.7154 7.73318C27.6753 7.68439 27.6352 7.65646 27.5883 7.6286C27.5415 7.60767 27.4946 7.59367 27.4478 7.59367C27.4009 7.59367 27.3475 7.60067 27.3006 7.6216C27.2538 7.64253 27.2069 7.67046 27.1668 7.70532C27.1267 7.74018 27.0932 7.78897 27.0664 7.83083C27.0396 7.87962 27.0263 7.92841 27.0197 7.97727C27.0129 8.02606 27.0197 8.08185 27.033 8.13071C27.0463 8.1795 27.0731 8.22836 27.1132 8.27715C27.1534 8.32594 27.1935 8.3608 27.2403 8.38173C27.2872 8.40266 27.334 8.41659 27.3809 8.41659C27.4277 8.41659 27.4813 8.40966 27.528 8.38873C27.575 8.3678 27.6217 8.33987 27.6619 8.30501Z" fill="black"/>
<path d="M27.6217 9.10704L27.5347 8.98853L28.8193 7.96338L28.9064 8.08196L27.6217 9.10704Z" fill="black"/>
<path d="M28.2237 9.99947L28.1433 9.86003L29.4415 9.03711L29.6756 9.43464C29.7157 9.49736 29.7425 9.56715 29.7626 9.62987C29.7826 9.69266 29.7892 9.75545 29.7892 9.81117C29.7892 9.86703 29.7693 9.92282 29.7358 9.97861C29.7023 10.0274 29.6555 10.0763 29.5952 10.118C29.5484 10.1459 29.5017 10.1669 29.4481 10.1738C29.4012 10.1808 29.3478 10.1808 29.3008 10.1669C29.2541 10.1529 29.2071 10.132 29.167 10.1041C29.1269 10.0763 29.0868 10.0344 29.0533 9.98554L28.6653 10.7736L28.565 10.6062L28.953 9.8461L28.8191 9.61594L28.2237 9.99947ZM28.9462 9.54622L29.0868 9.78331C29.1537 9.89489 29.2206 9.96461 29.2941 9.99947C29.3677 10.0344 29.4415 10.0274 29.5217 9.97861C29.5618 9.95075 29.5952 9.92282 29.6153 9.88796C29.6355 9.8531 29.6421 9.81817 29.6488 9.77631C29.6488 9.73452 29.6421 9.69266 29.6287 9.64387C29.6153 9.59501 29.5886 9.54622 29.5618 9.49736L29.4213 9.25334L28.9462 9.54622Z" fill="black"/>
<path d="M29.6356 11.5409C29.629 11.5478 29.6155 11.5478 29.6088 11.5548C29.5955 11.5617 29.5887 11.5617 29.5753 11.5687L29.2074 10.7947C29.1605 10.8225 29.1271 10.8505 29.0936 10.8853C29.0602 10.9202 29.04 10.962 29.0267 11.0108C29.0134 11.0596 29.0066 11.1015 29.0066 11.1573C29.0066 11.2061 29.0201 11.2549 29.0468 11.3037C29.0803 11.3734 29.1271 11.4292 29.1806 11.4642C29.234 11.4989 29.2943 11.5199 29.3479 11.5269L29.3211 11.6664C29.2274 11.6455 29.1472 11.6106 29.0869 11.5548C29.0267 11.5059 28.9732 11.4362 28.9397 11.3596C28.9063 11.2898 28.8863 11.22 28.8863 11.1503C28.8796 11.0806 28.8929 11.0108 28.9131 10.948C28.933 10.8853 28.9665 10.8225 29.0134 10.7667C29.0602 10.711 29.1138 10.6691 29.1873 10.6342C29.2542 10.5994 29.3211 10.5784 29.3947 10.5714C29.4617 10.5645 29.5286 10.5714 29.5887 10.5924C29.649 10.6134 29.7092 10.6482 29.7561 10.69C29.8095 10.7319 29.8498 10.7947 29.8832 10.8574C29.9167 10.9341 29.9367 11.0038 29.9367 11.0666C29.9367 11.1363 29.93 11.1991 29.9099 11.2549C29.8899 11.3107 29.8564 11.3665 29.8095 11.4153C29.7493 11.4711 29.6958 11.5059 29.6356 11.5409ZM29.6088 11.3804C29.6892 11.3316 29.7493 11.2689 29.7761 11.1852C29.8095 11.1015 29.7962 11.0108 29.7561 10.9202C29.736 10.8714 29.7092 10.8365 29.669 10.8086C29.6356 10.7807 29.5955 10.7528 29.5553 10.7389C29.5151 10.7249 29.4684 10.718 29.4281 10.718C29.388 10.718 29.3412 10.7249 29.3011 10.7459L29.6088 11.3804Z" fill="black"/>
<path d="M28.8258 12.3499L28.7722 12.2104L30.1907 11.6455L30.2442 11.785L30.0837 11.8477V11.8547C30.1572 11.8687 30.2241 11.9035 30.2844 11.9593C30.3378 12.0151 30.3847 12.0779 30.4047 12.1476C30.4315 12.2243 30.445 12.3011 30.445 12.3708C30.445 12.4406 30.4248 12.5103 30.398 12.573C30.3713 12.6358 30.3311 12.6916 30.2777 12.7404C30.2241 12.7892 30.1639 12.8241 30.097 12.852C30.0301 12.8799 29.9565 12.8938 29.8896 12.8938C29.8226 12.8938 29.7557 12.8799 29.6956 12.852C29.6354 12.8241 29.5818 12.7892 29.535 12.7334C29.4881 12.6846 29.448 12.6149 29.4212 12.5381C29.3944 12.4684 29.3877 12.3917 29.3944 12.315C29.4011 12.2383 29.4278 12.1616 29.468 12.0988V12.0918L28.8258 12.3499ZM30.0434 12.6986C30.097 12.6776 30.1438 12.6497 30.184 12.6149C30.2241 12.58 30.2576 12.5381 30.2777 12.4963C30.2976 12.4545 30.3112 12.3987 30.3178 12.3499C30.3178 12.2941 30.3112 12.2383 30.291 12.1825C30.2709 12.1267 30.2441 12.0848 30.204 12.043C30.1706 12.0082 30.1238 11.9733 30.0769 11.9593C30.0301 11.9384 29.9832 11.9315 29.9298 11.9315C29.8762 11.9315 29.8226 11.9384 29.7691 11.9663C29.7156 11.9872 29.6688 12.0151 29.6286 12.057C29.5885 12.0918 29.5617 12.1337 29.5417 12.1825C29.5215 12.2313 29.5083 12.2801 29.5083 12.3359C29.5083 12.3917 29.5149 12.4406 29.535 12.4963C29.555 12.5521 29.5885 12.6009 29.6219 12.6427C29.6554 12.6776 29.7022 12.7055 29.7424 12.7264C29.7891 12.7474 29.8361 12.7544 29.8896 12.7474C29.9364 12.7264 29.99 12.7195 30.0434 12.6986Z" fill="black"/>
<path d="M30.4517 14.1492C30.3779 14.1702 30.3044 14.1771 30.2375 14.1702C30.1706 14.1633 30.1037 14.1423 30.0501 14.1074C29.9899 14.0725 29.9431 14.0238 29.8963 13.968C29.8561 13.9122 29.8227 13.8424 29.8027 13.7588C29.7825 13.6821 29.7759 13.6053 29.7825 13.5356C29.7892 13.4589 29.8093 13.3961 29.8427 13.3333C29.8762 13.2706 29.9164 13.2218 29.9766 13.173C30.0301 13.1311 30.097 13.0962 30.1706 13.0753C30.2442 13.0544 30.3179 13.0474 30.3847 13.0544C30.4517 13.0614 30.5186 13.0823 30.572 13.1172C30.6323 13.152 30.6791 13.2008 30.7259 13.2566C30.7728 13.3125 30.7995 13.3821 30.8196 13.4589C30.8397 13.5356 30.8464 13.6123 30.8397 13.6891C30.8331 13.7657 30.8129 13.8285 30.7795 13.8912C30.746 13.954 30.706 14.0028 30.6457 14.0517C30.5921 14.0935 30.5252 14.1284 30.4517 14.1492ZM30.4114 13.9959C30.465 13.9818 30.5119 13.954 30.5586 13.9262C30.5988 13.8912 30.6391 13.8564 30.659 13.8145C30.6858 13.7727 30.6992 13.7239 30.7126 13.6681C30.7192 13.6123 30.7192 13.5565 30.6992 13.5007C30.6858 13.4449 30.659 13.3891 30.6255 13.3543C30.5921 13.3125 30.552 13.2845 30.5119 13.2566C30.465 13.2357 30.4182 13.2218 30.3646 13.2148C30.3111 13.2078 30.2577 13.2148 30.2041 13.2288C30.1505 13.2427 30.1037 13.2706 30.0569 13.2985C30.0167 13.3333 29.9766 13.3683 29.9565 13.4101C29.9298 13.4519 29.9164 13.5007 29.903 13.5565C29.8963 13.6123 29.8963 13.6611 29.9164 13.7239C29.9298 13.7796 29.9565 13.8354 29.9899 13.8772C30.0235 13.9192 30.0636 13.954 30.1037 13.9749C30.1505 13.9959 30.1974 14.0098 30.251 14.0167C30.3044 14.0167 30.358 14.0098 30.4114 13.9959Z" fill="black"/>
<path d="M30.8868 14.3512C30.9269 14.3442 30.9671 14.3303 31.0005 14.3232L31.0273 14.4628C31.0005 14.4698 30.9739 14.4767 30.9403 14.4906C30.9068 14.4977 30.8802 14.5046 30.8601 14.5115V14.5185C30.9203 14.5325 30.9805 14.5674 31.0273 14.6231C31.0742 14.672 31.1076 14.7348 31.121 14.8115C31.1276 14.8324 31.1276 14.8464 31.1276 14.8602C31.1276 14.8743 31.1276 14.8951 31.1276 14.9091L30.9872 14.9161C30.9872 14.9091 30.9872 14.8881 30.9872 14.8673C30.9872 14.8464 30.9805 14.8254 30.9805 14.8046C30.9739 14.7626 30.9604 14.7277 30.9403 14.6928C30.9203 14.658 30.8935 14.6302 30.8534 14.6093C30.8199 14.5883 30.7731 14.5743 30.7262 14.5674C30.6794 14.5603 30.6193 14.5603 30.5522 14.5743L30.0505 14.679L30.0237 14.5326L30.7931 14.3722C30.8133 14.3722 30.8467 14.3652 30.8868 14.3512Z" fill="black"/>
<path d="M31.101 15.7394L31.0608 15.4464L30.4787 15.5301C30.4385 15.5371 30.4118 15.5441 30.3918 15.551C30.3716 15.5649 30.3516 15.5719 30.3382 15.5928C30.3248 15.6068 30.3182 15.6277 30.3182 15.6487C30.3182 15.6696 30.3182 15.6904 30.3182 15.7114C30.3182 15.7322 30.3248 15.7532 30.3382 15.7742C30.3448 15.795 30.3583 15.816 30.3716 15.8369L30.2445 15.8647C30.2311 15.8369 30.2178 15.816 30.211 15.7881C30.2044 15.7602 30.1977 15.7322 30.191 15.6974C30.1844 15.6696 30.1844 15.6417 30.191 15.6068C30.191 15.5719 30.2044 15.5441 30.2178 15.5161C30.2311 15.4882 30.258 15.4603 30.2914 15.4394C30.3248 15.4185 30.365 15.4046 30.4185 15.3975L31.0408 15.307L31.014 15.0907L31.1344 15.0698L31.1612 15.286L31.4421 15.2442L31.4622 15.3975L31.1812 15.4394L31.2214 15.7322L31.101 15.7394Z" fill="black"/>
<path d="M31.0612 16.6106C31.1013 16.5828 31.1347 16.548 31.1548 16.4991C31.1749 16.4503 31.1884 16.4015 31.1816 16.3387C31.1816 16.3107 31.1749 16.283 31.1682 16.262C31.1616 16.2341 31.1481 16.2132 31.1347 16.1922C31.1213 16.1713 31.1013 16.1574 31.0812 16.1435C31.0612 16.1294 31.0344 16.1294 31.0076 16.1294C30.9608 16.1364 30.9273 16.1574 30.9073 16.1992C30.8872 16.241 30.8672 16.3038 30.8604 16.3945C30.8471 16.52 30.8136 16.6106 30.7735 16.6734C30.7333 16.7362 30.6731 16.7711 30.5928 16.778C30.5326 16.7851 30.4858 16.778 30.4457 16.7571C30.4054 16.7362 30.372 16.7083 30.3452 16.6734C30.3185 16.6385 30.2984 16.5968 30.2851 16.555C30.2716 16.506 30.2649 16.4642 30.2583 16.4155C30.2517 16.3387 30.2649 16.262 30.2851 16.1854C30.3117 16.1085 30.3586 16.0459 30.4188 15.9901L30.5125 16.1016C30.4723 16.1294 30.4389 16.1713 30.4122 16.2271C30.3854 16.283 30.372 16.3387 30.3786 16.4015C30.3786 16.4363 30.3854 16.4642 30.3921 16.4922C30.3988 16.52 30.4122 16.548 30.4255 16.5688C30.4389 16.5898 30.459 16.6037 30.4858 16.6177C30.5125 16.6316 30.5392 16.6316 30.5726 16.6316C30.6262 16.6247 30.6597 16.5968 30.6865 16.5409C30.7066 16.4852 30.7266 16.4084 30.7401 16.3038C30.7467 16.2689 30.7534 16.241 30.76 16.1992C30.7667 16.1644 30.7802 16.1294 30.8003 16.1016C30.8202 16.0736 30.8404 16.0459 30.8739 16.0249C30.9006 16.0039 30.9408 15.9901 30.9875 15.9831C31.0411 15.9761 31.0812 15.9831 31.1213 16.0039C31.1616 16.0249 31.1884 16.0459 31.215 16.0807C31.2418 16.1156 31.2619 16.1504 31.2753 16.1922C31.2887 16.2341 31.302 16.283 31.302 16.3317C31.3087 16.4015 31.2953 16.4781 31.2686 16.548C31.2418 16.6177 31.2016 16.6734 31.1481 16.7153L31.0612 16.6106Z" fill="black"/>
<path d="M11.4666 30.9819C11.5 30.8981 11.5067 30.8284 11.4866 30.7656C11.4666 30.7029 11.413 30.6541 11.3327 30.6192C11.2792 30.5913 11.2257 30.5774 11.1655 30.5774C11.112 30.5774 11.0584 30.5843 11.0116 30.5983L10.9781 30.4728C11.0316 30.4518 11.0986 30.4448 11.1721 30.4448C11.2457 30.4518 11.3194 30.4728 11.3997 30.5076C11.4465 30.5285 11.4933 30.5633 11.5267 30.5983C11.5602 30.6332 11.5937 30.6751 11.6137 30.7168C11.6338 30.7586 11.6405 30.8076 11.6405 30.8632C11.6405 30.9121 11.6271 30.9678 11.6004 31.0306L11.413 31.4421C11.3997 31.477 11.3796 31.5188 11.3662 31.5606C11.3528 31.6024 11.3394 31.6373 11.3327 31.6652L11.2123 31.6096C11.219 31.5816 11.2257 31.5606 11.239 31.5328C11.2457 31.5048 11.2592 31.477 11.2725 31.4491H11.2658C11.1989 31.4909 11.1253 31.5119 11.0651 31.5188C10.9982 31.5188 10.9312 31.5048 10.8576 31.4699C10.8242 31.456 10.7908 31.4281 10.7573 31.4003C10.7238 31.3723 10.6971 31.3375 10.677 31.3026C10.657 31.2677 10.6436 31.2259 10.6436 31.1772C10.6436 31.1282 10.6502 31.0795 10.677 31.0306C10.7105 30.9609 10.7506 30.9052 10.8109 30.8842C10.8644 30.8563 10.9246 30.8494 10.9982 30.8563C11.0651 30.8632 11.1386 30.8842 11.219 30.9191C11.2993 30.9539 11.3796 30.9888 11.4599 31.0237L11.4666 30.9819ZM11.3662 31.1074C11.3126 31.0795 11.2592 31.0585 11.1989 31.0377C11.1386 31.0167 11.0852 31.0028 11.0383 30.9957C10.9848 30.9888 10.9447 30.9888 10.8978 31.0028C10.8576 31.0167 10.8242 31.0447 10.8041 31.0864C10.7908 31.1213 10.7841 31.1492 10.7841 31.1772C10.7841 31.205 10.7975 31.2328 10.8109 31.2538C10.8242 31.2748 10.8443 31.3026 10.8644 31.3166C10.8844 31.3375 10.9112 31.3515 10.938 31.3653C10.9848 31.3863 11.0316 31.4003 11.0718 31.4003C11.1186 31.4003 11.1588 31.3933 11.1923 31.3793C11.2323 31.3653 11.2658 31.3375 11.2926 31.3097C11.3194 31.2817 11.3461 31.24 11.3662 31.198L11.3997 31.1282L11.3662 31.1074Z" fill="white"/>
<path d="M11.821 31.8739L11.6873 31.8182L12.0619 30.8489L12.1958 30.9047L11.821 31.8739ZM12.3697 30.5421C12.3563 30.57 12.3363 30.5908 12.3095 30.5979C12.2827 30.6048 12.256 30.6118 12.2359 30.5979C12.2091 30.5908 12.1958 30.57 12.1824 30.5421C12.169 30.5141 12.169 30.4862 12.1824 30.4583C12.1958 30.4305 12.2158 30.4095 12.2426 30.4026C12.2694 30.3956 12.2961 30.3886 12.3162 30.4026C12.3429 30.4095 12.3563 30.4305 12.3697 30.4583C12.3764 30.4862 12.3764 30.5141 12.3697 30.5421Z" fill="white"/>
<path d="M13.1389 31.5048C13.1255 31.456 13.1054 31.4142 13.072 31.3723C13.0385 31.3305 12.9916 31.3026 12.9381 31.2817C12.8846 31.2607 12.8311 31.2538 12.7776 31.2607C12.724 31.2677 12.6772 31.2817 12.637 31.3026C12.5902 31.3305 12.5568 31.3584 12.5233 31.4073C12.4899 31.4491 12.4631 31.4978 12.4497 31.5537C12.4296 31.6095 12.423 31.6652 12.423 31.7211C12.423 31.7768 12.4363 31.8256 12.4564 31.8744C12.4765 31.9233 12.5032 31.9651 12.5434 32C12.5836 32.0348 12.6304 32.0628 12.6839 32.0837C12.7441 32.1046 12.7976 32.1115 12.8512 32.1046C12.898 32.0976 12.9449 32.0767 12.985 32.0489L13.0652 32.1674C13.005 32.2022 12.9449 32.2302 12.8779 32.2371C12.811 32.244 12.7307 32.2371 12.6504 32.2092C12.5702 32.1812 12.5099 32.1464 12.4564 32.0976C12.4028 32.0489 12.3628 31.9931 12.3293 31.9303C12.3025 31.8675 12.2825 31.7978 12.2825 31.728C12.2758 31.6583 12.2891 31.5816 12.3159 31.5048C12.3427 31.4282 12.3762 31.3654 12.423 31.3096C12.4698 31.2538 12.5166 31.212 12.5768 31.1841C12.637 31.1562 12.7039 31.1352 12.7709 31.1282C12.8445 31.1213 12.9181 31.1352 12.9916 31.1631C13.0586 31.1841 13.1121 31.2259 13.1723 31.2748C13.2259 31.3235 13.266 31.3863 13.2927 31.456L13.1389 31.5048Z" fill="white"/>
<path d="M13.333 32.9623L13.1924 32.9273L13.5537 31.3931L13.6942 31.4279L13.6541 31.6022H13.6608C13.7143 31.5466 13.7812 31.5117 13.8548 31.4907C13.9284 31.4768 14.002 31.4768 14.069 31.4907C14.1425 31.5117 14.2094 31.5395 14.2697 31.5814C14.3231 31.6232 14.37 31.6791 14.4035 31.7347C14.4369 31.7906 14.4571 31.8603 14.4637 31.93C14.4704 31.9998 14.4704 32.0765 14.4503 32.1533C14.4302 32.2299 14.4035 32.2927 14.3634 32.3555C14.3231 32.4112 14.2763 32.4601 14.2228 32.5019C14.1694 32.5368 14.1091 32.5647 14.0355 32.5717C13.9685 32.5855 13.8949 32.5786 13.8214 32.5577C13.7544 32.5368 13.6875 32.5089 13.6273 32.4531C13.5671 32.4043 13.527 32.3415 13.5002 32.2648H13.4935L13.333 32.9623ZM14.3031 32.1184C14.3165 32.0626 14.3231 32.0067 14.3165 31.951C14.3098 31.8952 14.2965 31.8465 14.2763 31.8045C14.2563 31.7627 14.2228 31.7209 14.1826 31.686C14.1425 31.6512 14.0956 31.6302 14.0355 31.6163C13.982 31.6022 13.9284 31.6022 13.8749 31.6092C13.8214 31.6163 13.7745 31.6372 13.7344 31.665C13.6942 31.6929 13.6541 31.7278 13.6273 31.7766C13.5938 31.8185 13.5738 31.8742 13.5604 31.93C13.547 31.9859 13.5404 32.0416 13.5537 32.0975C13.5671 32.1533 13.5738 32.2021 13.6006 32.2438C13.6273 32.2858 13.6608 32.3276 13.7009 32.3624C13.741 32.3973 13.7879 32.4181 13.8415 32.4322C13.9016 32.4461 13.9552 32.4531 14.002 32.4391C14.0555 32.4322 14.0956 32.4112 14.1359 32.3833C14.176 32.3555 14.2094 32.3206 14.2362 32.2718C14.2697 32.223 14.2897 32.1741 14.3031 32.1184Z" fill="white"/>
<path d="M15.4474 32.1674C15.4609 32.0766 15.4474 32.0069 15.4073 31.9582C15.3672 31.9093 15.307 31.8744 15.22 31.8605C15.1597 31.8535 15.1063 31.8535 15.0527 31.8674C14.9992 31.8815 14.9523 31.9023 14.9123 31.9372L14.8454 31.8257C14.8921 31.7907 14.9523 31.7629 15.0259 31.749C15.0996 31.735 15.1732 31.728 15.26 31.742C15.3137 31.749 15.3605 31.7629 15.4073 31.7907C15.4541 31.8117 15.4877 31.8466 15.5211 31.8815C15.5546 31.9163 15.5746 31.9582 15.588 32.014C15.6014 32.0627 15.6014 32.1186 15.5947 32.1814L15.5278 32.6346C15.5211 32.6764 15.5144 32.7182 15.5144 32.7602C15.5077 32.802 15.5077 32.8368 15.5144 32.8717L15.3872 32.8507C15.3872 32.8229 15.3872 32.795 15.3872 32.7671C15.3872 32.7392 15.394 32.7112 15.394 32.6834H15.3872C15.3338 32.7462 15.2736 32.788 15.2133 32.8089C15.1531 32.8299 15.0795 32.8368 14.9992 32.8229C14.959 32.8158 14.9256 32.802 14.8855 32.788C14.8454 32.7671 14.8119 32.7462 14.7851 32.7182C14.7583 32.6904 14.7315 32.6485 14.7182 32.6067C14.7047 32.5649 14.6981 32.516 14.7047 32.4533C14.7182 32.3765 14.745 32.3137 14.7918 32.2719C14.8386 32.2301 14.8921 32.2022 14.9657 32.1953C15.0326 32.1813 15.1129 32.1813 15.1932 32.1883C15.2802 32.1953 15.3672 32.2022 15.4541 32.2231L15.4474 32.1674ZM15.3805 32.3137C15.3203 32.3068 15.26 32.2999 15.2 32.2929C15.1397 32.2859 15.0862 32.2929 15.0326 32.2999C14.9792 32.3068 14.9391 32.3208 14.9056 32.3487C14.872 32.3765 14.852 32.4114 14.8386 32.4603C14.8319 32.4952 14.8386 32.53 14.8454 32.5579C14.852 32.5859 14.872 32.6067 14.8921 32.6276C14.9123 32.6485 14.9391 32.6625 14.9657 32.6695C14.9925 32.6834 15.0192 32.6904 15.046 32.6904C15.0996 32.6974 15.1464 32.6974 15.1865 32.6834C15.2266 32.6695 15.2668 32.6485 15.3003 32.6276C15.3338 32.5997 15.3605 32.5649 15.3805 32.53C15.4006 32.4882 15.414 32.4462 15.4207 32.4044L15.4341 32.3278L15.3805 32.3137Z" fill="white"/>
<path d="M16.0962 32.8155C16.0962 32.8434 16.0829 32.8714 16.0561 32.8992C16.0292 32.9201 16.0025 32.9341 15.969 32.9271C15.9356 32.9201 15.9089 32.9062 15.8888 32.8852C15.8687 32.8574 15.8621 32.8295 15.8621 32.8016C15.8621 32.7737 15.8755 32.7458 15.9021 32.7178C15.9289 32.6901 15.9557 32.683 15.9892 32.6901C16.0226 32.6901 16.0494 32.7109 16.0695 32.7318C16.0895 32.7527 16.103 32.7806 16.0962 32.8155Z" fill="white"/>
<path d="M17.4548 32.4668C17.4548 32.5436 17.4346 32.6202 17.4078 32.6829C17.3812 32.7457 17.3409 32.8085 17.2942 32.8504C17.2473 32.8992 17.1872 32.9341 17.1201 32.962C17.0533 32.9898 16.9796 32.9969 16.8994 32.9969C16.8191 32.9969 16.7522 32.976 16.6853 32.948C16.6184 32.9201 16.5648 32.8783 16.518 32.8295C16.4711 32.7807 16.4377 32.7179 16.411 32.6481C16.3842 32.5784 16.3774 32.5087 16.3774 32.4251C16.3774 32.3483 16.3976 32.2715 16.4244 32.2088C16.4511 32.146 16.4913 32.0833 16.538 32.0414C16.585 31.9927 16.6452 31.9578 16.7121 31.9299C16.779 31.902 16.8525 31.895 16.9261 31.895C17.0064 31.895 17.0733 31.916 17.1402 31.9438C17.2072 31.9717 17.2607 32.0135 17.3075 32.0624C17.3544 32.1111 17.3878 32.1739 17.4146 32.2436C17.4481 32.3134 17.4615 32.3831 17.4548 32.4668ZM17.3009 32.4599C17.3009 32.4041 17.2942 32.3483 17.2807 32.2925C17.2674 32.2436 17.2406 32.1949 17.2072 32.1531C17.1737 32.1111 17.1335 32.0833 17.0867 32.0555C17.0399 32.0345 16.9863 32.0205 16.9261 32.0135C16.866 32.0135 16.8124 32.0205 16.7655 32.0414C16.7187 32.0624 16.6786 32.0903 16.6452 32.1252C16.6117 32.16 16.585 32.2088 16.5648 32.2577C16.5448 32.3064 16.5314 32.3623 16.5314 32.418C16.5314 32.4738 16.538 32.5296 16.5515 32.5854C16.5648 32.6342 16.5916 32.683 16.6251 32.7249C16.6585 32.7667 16.6986 32.7947 16.7388 32.8155C16.779 32.8364 16.8392 32.8504 16.8926 32.8504C16.9529 32.8504 17.0064 32.8434 17.0533 32.8224C17.1001 32.8016 17.1402 32.7737 17.1737 32.7388C17.2072 32.704 17.2339 32.6552 17.2541 32.6064C17.2942 32.5714 17.3009 32.5156 17.3009 32.4599Z" fill="white"/>
<path d="M17.7688 32.0487C17.7688 32.0068 17.7622 31.965 17.7554 31.9301L17.896 31.9231C17.9027 31.9511 17.9027 31.9859 17.9027 32.0139C17.9027 32.0487 17.9093 32.0765 17.9093 32.0975H17.916C17.9428 32.0347 17.9829 31.9859 18.0365 31.9441C18.09 31.9022 18.1569 31.8813 18.2239 31.8813C18.2438 31.8813 18.2573 31.8813 18.2774 31.8813C18.2907 31.8813 18.3108 31.8813 18.3242 31.8883L18.3108 32.0347C18.304 32.0347 18.2907 32.0277 18.2706 32.0277C18.2506 32.0277 18.2305 32.0277 18.2104 32.0277C18.1702 32.0277 18.1368 32.0347 18.0967 32.0556C18.0632 32.0696 18.0298 32.0975 18.003 32.1324C17.9762 32.1672 17.9562 32.209 17.9428 32.2579C17.9294 32.3067 17.9228 32.3695 17.9228 32.4392L17.9428 32.9761L17.7956 32.9831L17.7688 32.1672C17.7688 32.1324 17.7688 32.0975 17.7688 32.0487Z" fill="white"/>
<path d="M18.699 33.1365C18.7458 33.1852 18.8061 33.2271 18.8796 33.2549C18.9533 33.2829 19.0269 33.2969 19.1071 33.2829C19.1808 33.2759 19.2342 33.2549 19.2878 33.2271C19.3346 33.1993 19.3748 33.1644 19.4017 33.1224C19.4283 33.0806 19.4484 33.0388 19.4551 32.983C19.4617 32.9342 19.4685 32.8784 19.4617 32.8227L19.4417 32.6274H19.4351C19.4016 32.6972 19.3547 32.753 19.2878 32.7948C19.2209 32.8366 19.1541 32.8645 19.0804 32.8715C19.0001 32.8784 18.9332 32.8784 18.8663 32.8575C18.7994 32.8366 18.7391 32.8087 18.6924 32.7669C18.6454 32.725 18.5987 32.6762 18.5719 32.6134C18.5385 32.5507 18.5183 32.4809 18.5116 32.4042C18.505 32.3276 18.5116 32.2578 18.525 32.1881C18.5451 32.1183 18.5719 32.0625 18.612 32.0067C18.6521 31.951 18.699 31.909 18.7593 31.8742C18.8195 31.8393 18.8864 31.8185 18.9667 31.8044C19.0402 31.7975 19.1139 31.8044 19.1875 31.8323C19.261 31.8603 19.3212 31.902 19.3682 31.9648H19.3748L19.3547 31.7836L19.502 31.7695L19.609 32.8017C19.6156 32.8575 19.6156 32.9202 19.609 32.983C19.6023 33.0458 19.5822 33.1086 19.5421 33.1713C19.5086 33.2271 19.4551 33.2829 19.3881 33.3247C19.3212 33.3667 19.2342 33.3946 19.1206 33.4084C19.0269 33.4224 18.9399 33.4084 18.853 33.3805C18.7659 33.3526 18.6856 33.3108 18.6187 33.2549L18.699 33.1365ZM18.6454 32.3972C18.6521 32.4531 18.6656 32.5019 18.6856 32.5507C18.7057 32.5995 18.7391 32.6344 18.7726 32.6692C18.8061 32.7041 18.853 32.725 18.8997 32.7459C18.9465 32.7599 19.0001 32.7669 19.0604 32.7599C19.1139 32.753 19.1673 32.739 19.2076 32.711C19.2544 32.6831 19.2878 32.6553 19.3212 32.6134C19.3547 32.5716 19.3748 32.5297 19.3881 32.4739C19.4016 32.4252 19.4083 32.3693 19.4017 32.3066C19.3949 32.2509 19.3815 32.202 19.3547 32.1532C19.3279 32.1043 19.3012 32.0695 19.261 32.0346C19.2209 31.9997 19.1808 31.9789 19.1272 31.9579C19.0804 31.944 19.0269 31.937 18.9733 31.9439C18.9131 31.951 18.8596 31.9648 18.8195 31.9928C18.7726 32.0207 18.7391 32.0556 18.7124 32.0973C18.6856 32.1392 18.6656 32.1811 18.6521 32.2369C18.6454 32.2857 18.6388 32.3414 18.6454 32.3972Z" fill="white"/>
<path d="M20.0103 32.7877L19.8833 32.7668L20.2311 31.0513L20.3583 31.0723L20.0103 32.7877Z" fill="white"/>
<path d="M21.1213 31.6791C21.0878 31.6441 21.0477 31.6163 21.0008 31.6022C20.954 31.5883 20.9005 31.5883 20.8468 31.6022C20.8202 31.6093 20.8001 31.6163 20.7734 31.6301C20.7465 31.6441 20.7265 31.6581 20.7131 31.6719C20.6997 31.6929 20.6863 31.7139 20.6797 31.7347C20.673 31.7556 20.673 31.7836 20.6797 31.8115C20.6931 31.8603 20.7197 31.8882 20.7599 31.909C20.8001 31.9231 20.867 31.93 20.954 31.93C21.0744 31.9231 21.168 31.9369 21.2349 31.9718C21.3019 32.0067 21.3421 32.0625 21.3621 32.1392C21.3755 32.195 21.3755 32.2508 21.3621 32.2927C21.3487 32.3345 21.3286 32.3763 21.3019 32.4111C21.2752 32.446 21.2349 32.4739 21.1948 32.4949C21.1547 32.5158 21.1078 32.5367 21.0677 32.5436C20.9941 32.5646 20.9206 32.5646 20.8402 32.5508C20.7667 32.5367 20.6931 32.5018 20.6328 32.446L20.7265 32.3275C20.7599 32.3693 20.8068 32.3973 20.8603 32.4111C20.9138 32.4321 20.974 32.4321 21.0342 32.4183C21.0677 32.4111 21.0945 32.3973 21.1213 32.3903C21.1481 32.3763 21.168 32.3624 21.1882 32.3414C21.2083 32.3206 21.215 32.2996 21.2283 32.2717C21.2349 32.2438 21.2349 32.216 21.2283 32.1812C21.215 32.1252 21.1815 32.0904 21.1279 32.0764C21.0744 32.0625 20.9941 32.0556 20.8938 32.0556C20.8603 32.0556 20.8269 32.0556 20.7934 32.0556C20.7599 32.0556 20.7265 32.0415 20.6931 32.0276C20.6596 32.0137 20.6328 31.9928 20.606 31.9649C20.5793 31.9369 20.5592 31.9021 20.5525 31.8533C20.5391 31.8044 20.5391 31.7556 20.5525 31.7139C20.566 31.6719 20.5793 31.6371 20.606 31.6022C20.6328 31.5673 20.6663 31.5396 20.7064 31.5186C20.7465 31.4976 20.7866 31.4768 20.8336 31.4697C20.9005 31.4558 20.974 31.4488 21.0409 31.4697C21.1146 31.4837 21.168 31.5186 21.215 31.5673L21.1213 31.6791Z" fill="white"/>
<path d="M22.5732 31.4977C22.5999 31.5745 22.6067 31.6442 22.5999 31.7209C22.5931 31.7906 22.5799 31.8604 22.5464 31.9232C22.5197 31.9859 22.4729 32.0416 22.4193 32.0905C22.3657 32.1392 22.2988 32.1741 22.2253 32.202C22.1517 32.23 22.0781 32.2369 22.0111 32.2369C21.9375 32.23 21.8773 32.216 21.817 32.1812C21.7569 32.1532 21.7034 32.1044 21.6565 32.0556C21.6097 31.9998 21.5762 31.937 21.5495 31.8604C21.5227 31.7836 21.516 31.7139 21.5227 31.6371C21.5295 31.5674 21.5428 31.4977 21.5762 31.4349C21.603 31.3723 21.6498 31.3164 21.7034 31.2675C21.7569 31.2187 21.8238 31.1839 21.8975 31.156C21.9709 31.1281 22.0446 31.1211 22.1183 31.1211C22.1918 31.1281 22.252 31.1421 22.3123 31.177C22.3725 31.2049 22.426 31.2536 22.4729 31.3024C22.5197 31.3583 22.5531 31.421 22.5732 31.4977ZM22.4326 31.5466C22.4126 31.4907 22.3925 31.442 22.3591 31.4C22.3256 31.3583 22.2921 31.3234 22.2454 31.2955C22.2051 31.2675 22.1583 31.2536 22.1048 31.2467C22.0514 31.2397 21.9978 31.2467 21.9442 31.2675C21.8908 31.2885 21.8438 31.3164 21.8038 31.3513C21.7636 31.3861 21.7369 31.4279 21.7167 31.4768C21.6967 31.5256 21.6833 31.5745 21.6833 31.6302C21.6833 31.686 21.6901 31.7419 21.7101 31.7976C21.7301 31.8534 21.7501 31.9022 21.7836 31.9441C21.817 31.9859 21.8505 32.0208 21.8975 32.0487C21.9375 32.0765 21.9845 32.0905 22.0379 32.0975C22.0914 32.1044 22.1383 32.0975 22.1985 32.0765C22.252 32.0556 22.2988 32.0277 22.3391 31.9928C22.3792 31.958 22.4059 31.9162 22.426 31.8673C22.446 31.8185 22.4527 31.7696 22.4594 31.7139C22.4527 31.6581 22.446 31.6023 22.4326 31.5466Z" fill="white"/>
<path d="M23.4561 30.8006C23.4159 30.7726 23.3759 30.7586 23.3223 30.7516C23.2687 30.7447 23.2153 30.7586 23.1684 30.7796C23.1149 30.8006 23.068 30.8354 23.0346 30.8772C23.0011 30.919 22.9743 30.9609 22.9543 31.0097C22.9409 31.0585 22.9342 31.1074 22.9342 31.163C22.9342 31.2189 22.9477 31.2748 22.9743 31.3305C22.9944 31.3863 23.0279 31.4351 23.0614 31.4699C23.0948 31.5118 23.1349 31.5396 23.1818 31.5606C23.2286 31.5816 23.2755 31.5955 23.3289 31.5955C23.3825 31.5955 23.4361 31.5816 23.4896 31.5606C23.5498 31.5327 23.5967 31.4978 23.6233 31.456C23.6568 31.4142 23.6769 31.3724 23.6836 31.3235L23.8173 31.3583C23.7974 31.4281 23.7706 31.4908 23.7238 31.5467C23.6769 31.6024 23.6167 31.6513 23.5364 31.6861C23.4628 31.7211 23.3892 31.7349 23.3156 31.7419C23.242 31.7419 23.1818 31.7349 23.1149 31.707C23.0547 31.6792 23.0011 31.6444 22.9477 31.5886C22.9008 31.5396 22.8606 31.477 22.8272 31.4002C22.8004 31.3305 22.7803 31.2538 22.7803 31.184C22.7803 31.1143 22.7871 31.0446 22.8137 30.9818C22.8405 30.919 22.874 30.8562 22.9276 30.8075C22.9743 30.7516 23.0412 30.7099 23.1149 30.6819C23.1751 30.654 23.242 30.6401 23.3223 30.6401C23.4027 30.6401 23.4628 30.6609 23.5298 30.6958L23.4561 30.8006Z" fill="white"/>
</g>
<defs>
<clipPath id="clip0_2996_14128">
<rect width="34" height="35" fill="white"/>
</clipPath>
</defs>
</svg>