<svg xmlns:xlink="http://www.w3.org/1999/xlink" xmlns="http://www.w3.org/2000/svg" width="68" height="24" viewBox="0 0 68 24" fill="none">
<g clip-path="url(#clip0_4657_35775)">
<path d="M28.4276 23.4624C26.698 23.4624 25.1561 23.1191 23.8017 22.4326C22.4472 21.746 21.3741 20.7482 20.5823 19.4394C19.8113 18.1091 19.4258 16.5321 19.4258 14.7083C19.4258 12.7987 19.8009 11.1143 20.551 9.65532C21.3012 8.19632 22.343 7.06987 23.6767 6.27598C25.031 5.46065 26.5834 5.05298 28.3338 5.05298C30.1466 5.05298 31.6678 5.46065 32.8972 6.27598C34.1265 7.06987 35.0434 8.21778 35.6477 9.71976C36.2728 11.2216 36.575 13.0025 36.5541 15.0623H21.1449V12.0692H34.1474L32.3033 13.4853C32.3033 12.4339 32.1574 11.5113 31.8657 10.7175C31.5948 9.92358 31.1572 9.29061 30.553 8.81855C29.9695 8.34652 29.2298 8.1105 28.3338 8.1105C27.417 8.1105 26.6147 8.36797 25.9271 8.88293C25.2394 9.39789 24.7081 10.1488 24.333 11.1358C23.9579 12.1228 23.7704 13.2814 23.7704 14.6118C23.7704 15.7919 23.9684 16.811 24.3643 17.6693C24.781 18.5275 25.3436 19.1819 26.0521 19.6325C26.7814 20.0616 27.5836 20.2762 28.4588 20.2762C29.6674 20.2762 30.6676 19.9437 31.4594 19.2785C32.272 18.5918 32.8659 17.7336 33.2409 16.7038L36.7729 18.8923C35.7727 20.4371 34.5537 21.585 33.1159 22.336C31.699 23.087 30.1362 23.4624 28.4276 23.4624Z" fill="#0E3677"/>
<path d="M46.7917 23.4624C45.0622 23.4624 43.5202 23.1191 42.1658 22.4326C40.8114 21.746 39.7383 20.7482 38.9464 19.4394C38.1754 18.1091 37.7899 16.5321 37.7899 14.7083C37.7899 12.7987 38.165 11.1143 38.9152 9.65532C39.6653 8.19632 40.7072 7.06987 42.0407 6.27598C43.3952 5.46065 44.9475 5.05298 46.6979 5.05298C48.5108 5.05298 50.0319 5.46065 51.2612 6.27598C52.4907 7.06987 53.4075 8.21778 54.0118 9.71976C54.6369 11.2216 54.9391 13.0025 54.9182 15.0623H39.509V12.0692H52.5115L50.6674 13.4853C50.6674 12.4339 50.5215 11.5113 50.2298 10.7175C49.9589 9.92358 49.5214 9.29061 48.9171 8.81855C48.3336 8.34652 47.5939 8.1105 46.6979 8.1105C45.7811 8.1105 44.9788 8.36797 44.2912 8.88293C43.6035 9.39789 43.0722 10.1488 42.6971 11.1358C42.3221 12.1228 42.1346 13.2814 42.1346 14.6118C42.1346 15.7919 42.3325 16.811 42.7284 17.6693C43.1452 18.5275 43.7077 19.1819 44.4162 19.6325C45.1455 20.0616 45.9478 20.2762 46.8229 20.2762C48.0315 20.2762 49.0316 19.9437 49.8235 19.2785C50.6362 18.5918 51.23 17.7336 51.6051 16.7038L55.1371 18.8923C54.1368 20.4371 52.9178 21.585 51.4801 22.336C50.0631 23.087 48.5003 23.4624 46.7917 23.4624Z" fill="#0E3677"/>
<path d="M56.3103 0H60.4986V18.8279C60.4986 20.3513 60.5715 21.746 60.7174 23.0118H56.3103V0Z" fill="#0E3677"/>
<path d="M0 14.2699C0 7.89584 3.95145 5.06336 8.28431 5.06336C12.2388 5.06336 13.9063 7.65056 13.9063 7.65056V0.00854492H18.1893V18.8415C18.1893 20.3875 18.2409 21.7824 18.3457 23.0263H13.9077V20.9124C13.9077 20.9124 12.2083 23.4764 8.2857 23.4764C4.10392 23.4764 0 21.0055 0 14.2699ZM9.37824 20.0924C12.4116 20.0924 14.3728 17.7151 14.3728 14.2699C14.3728 10.7042 12.4102 8.44729 9.37824 8.44729C6.34624 8.44729 4.45616 10.5927 4.45616 14.2699C4.45616 17.947 6.42584 20.0924 9.37824 20.0924Z" fill="#0E3677"/>
<path d="M63.2059 18.8923H67.3317V23.012H63.2059V18.8923Z" fill="#0E3677"/>
</g>
<defs>
<clipPath id="clip0_4657_35775">
<rect width="67.3333" height="24" fill="white"/>
</clipPath>
</defs>
</svg>