<svg xmlns:xlink="http://www.w3.org/1999/xlink" xmlns="http://www.w3.org/2000/svg" width="32" height="32" viewBox="0 0 32 32" fill="none">
<path fill-rule="evenodd" clip-rule="evenodd" d="M1.33325 9.33337C1.33325 7.12423 3.12411 5.33337 5.33325 5.33337H26.6666C28.8757 5.33337 30.6666 7.12423 30.6666 9.33337V22.6667C30.6666 24.8758 28.8757 26.6667 26.6666 26.6667H5.33325C3.12411 26.6667 1.33325 24.8758 1.33325 22.6667V9.33337ZM5.33325 8.00004C4.59687 8.00004 3.99992 8.59699 3.99992 9.33337C3.99992 10.0698 4.59687 10.6667 5.33325 10.6667H6.66658C7.40296 10.6667 7.99992 10.0698 7.99992 9.33337C7.99992 8.59699 7.40296 8.00004 6.66658 8.00004H5.33325ZM15.9999 12.6667C14.159 12.6667 12.6666 14.1591 12.6666 16C12.6666 17.841 14.159 19.3334 15.9999 19.3334C17.8409 19.3334 19.3333 17.841 19.3333 16C19.3333 14.1591 17.8409 12.6667 15.9999 12.6667ZM25.3333 21.3334C24.5969 21.3334 23.9999 21.9303 23.9999 22.6667C23.9999 23.4031 24.5969 24 25.3333 24H26.6666C27.403 24 27.9999 23.4031 27.9999 22.6667C27.9999 21.9303 27.403 21.3334 26.6666 21.3334H25.3333Z" fill="#343434"/>
</svg>