<svg xmlns:xlink="http://www.w3.org/1999/xlink" xmlns="http://www.w3.org/2000/svg" width="32" height="32" viewBox="0 0 32 32" fill="none">
<path d="M9.33333 4C10.0697 4 10.6667 4.59695 10.6667 5.33333V8H13.3333C14.0697 8 14.6667 8.59695 14.6667 9.33333C14.6667 10.0697 14.0697 10.6667 13.3333 10.6667H10.6667V13.3333C10.6667 14.0697 10.0697 14.6667 9.33333 14.6667C8.59695 14.6667 8 14.0697 8 13.3333V10.6667H5.33333C4.59695 10.6667 4 10.0697 4 9.33333C4 8.59695 4.59695 8 5.33333 8H8V5.33333C8 4.59695 8.59695 4 9.33333 4Z" fill="#343434"/>
<path d="M22.6667 4C19.7211 4 17.3333 6.38781 17.3333 9.33333C17.3333 12.2789 19.7211 14.6667 22.6667 14.6667C25.6122 14.6667 28 12.2789 28 9.33333C28 6.38781 25.6122 4 22.6667 4Z" fill="#343434"/>
<path d="M26.4379 20.7806C26.9586 20.2599 26.9586 19.4156 26.4379 18.8949C25.9172 18.3742 25.073 18.3742 24.5523 18.8949L22.6667 20.7806L20.781 18.8949C20.2603 18.3742 19.4161 18.3742 18.8954 18.8949C18.3747 19.4156 18.3747 20.2599 18.8954 20.7806L20.781 22.6662L18.8954 24.5518C18.3747 25.0725 18.3747 25.9167 18.8954 26.4374C19.4161 26.9581 20.2603 26.9581 20.781 26.4374L22.6667 24.5518L24.5523 26.4374C25.073 26.9581 25.9172 26.9581 26.4379 26.4374C26.9586 25.9167 26.9586 25.0725 26.4379 24.5518L24.5523 22.6662L26.4379 20.7806Z" fill="#343434"/>
<path d="M6.66667 17.3333C5.19391 17.3333 4 18.5272 4 20V25.3333C4 26.8061 5.19391 28 6.66667 28H12C13.4728 28 14.6667 26.8061 14.6667 25.3333V20C14.6667 18.5272 13.4728 17.3333 12 17.3333H6.66667Z" fill="#343434"/>
</svg>