<svg xmlns:xlink="http://www.w3.org/1999/xlink" xmlns="http://www.w3.org/2000/svg" width="32" height="32" viewBox="0 0 32 32" fill="none">
<path d="M9.33329 10.6667C9.33329 11.4031 8.73634 12 7.99996 12C7.26358 12 6.66663 11.4031 6.66663 10.6667C6.66663 9.93033 7.26358 9.33337 7.99996 9.33337C8.73634 9.33337 9.33329 9.93033 9.33329 10.6667Z" fill="#343434"/>
<path d="M13.3333 10.6667C13.3333 11.4031 12.7363 12 12 12C11.2636 12 10.6666 11.4031 10.6666 10.6667C10.6666 9.93033 11.2636 9.33337 12 9.33337C12.7363 9.33337 13.3333 9.93033 13.3333 10.6667Z" fill="#343434"/>
<path d="M16 12C16.7363 12 17.3333 11.4031 17.3333 10.6667C17.3333 9.93033 16.7363 9.33337 16 9.33337C15.2636 9.33337 14.6666 9.93033 14.6666 10.6667C14.6666 11.4031 15.2636 12 16 12Z" fill="#343434"/>
<path d="M2.66663 9.33337C2.66663 7.12424 4.45749 5.33337 6.66663 5.33337H25.3333C27.5424 5.33337 29.3333 7.12424 29.3333 9.33337V10.6667C29.3333 11.4031 28.7363 12 28 12C27.2636 12 26.6666 11.4031 26.6666 10.6667V9.33337C26.6666 8.59699 26.0697 8.00004 25.3333 8.00004H6.66663C5.93025 8.00004 5.33329 8.59699 5.33329 9.33337V22.6667C5.33329 23.4031 5.93025 24 6.66663 24H13.3333C14.0697 24 14.6666 24.597 14.6666 25.3334C14.6666 26.0698 14.0697 26.6667 13.3333 26.6667H6.66663C4.45749 26.6667 2.66663 24.8758 2.66663 22.6667V9.33337Z" fill="#343434"/>
<path d="M24 14.6667C24.7363 14.6667 25.3333 15.2637 25.3333 16C25.3333 17.6891 25.7088 18.6011 26.2205 19.1128C26.7323 19.6245 27.6442 20 29.3333 20C30.0697 20 30.6666 20.597 30.6666 21.3334C30.6666 22.0698 30.0697 22.6667 29.3333 22.6667C27.6442 22.6667 26.7323 23.0422 26.2205 23.554C25.7088 24.0657 25.3333 24.9776 25.3333 26.6667C25.3333 27.4031 24.7363 28 24 28C23.2636 28 22.6666 27.4031 22.6666 26.6667C22.6666 24.9776 22.2911 24.0657 21.7794 23.554C21.2676 23.0422 20.3557 22.6667 18.6666 22.6667C17.9302 22.6667 17.3333 22.0698 17.3333 21.3334C17.3333 20.597 17.9302 20 18.6666 20C20.3557 20 21.2676 19.6245 21.7794 19.1128C22.2911 18.6011 22.6666 17.6891 22.6666 16C22.6666 15.2637 23.2636 14.6667 24 14.6667Z" fill="#343434"/>
</svg>