<svg xmlns:xlink="http://www.w3.org/1999/xlink" xmlns="http://www.w3.org/2000/svg" width="32" height="32" viewBox="0 0 32 32" fill="none">
<path fill-rule="evenodd" clip-rule="evenodd" d="M16 29.3334C22.6274 29.3334 28 23.9608 28 17.3334V9.74414C28 8.15495 27.0592 6.71649 25.6033 6.07951L17.6033 2.57951C16.5812 2.13235 15.4188 2.13235 14.3967 2.57951L6.39672 6.07951C4.94078 6.71649 4 8.15495 4 9.74414V17.3334C4 23.9608 9.37258 29.3334 16 29.3334ZM20.9428 14.2762C21.4635 13.7555 21.4635 12.9113 20.9428 12.3906C20.4221 11.8699 19.5779 11.8699 19.0572 12.3906L14.6667 16.7811L12.9428 15.0573C12.4221 14.5366 11.5779 14.5366 11.0572 15.0573C10.5365 15.578 10.5365 16.4222 11.0572 16.9429L13.7239 19.6096C14.2446 20.1303 15.0888 20.1303 15.6095 19.6096L20.9428 14.2762Z" fill="#343434"/>
</svg>