<svg xmlns:xlink="http://www.w3.org/1999/xlink" xmlns="http://www.w3.org/2000/svg" width="32" height="32" viewBox="0 0 32 32" fill="none">
<path fill-rule="evenodd" clip-rule="evenodd" d="M5.33337 6.66663C5.33337 4.45749 7.12424 2.66663 9.33337 2.66663H22.6667C24.8758 2.66663 26.6667 4.45749 26.6667 6.66663V12.4552C25.8326 12.1604 24.9351 12 24 12C19.5818 12 16 15.5817 16 20V24C16 26.0489 16.7703 27.9179 18.0371 29.3333H9.33337C7.12424 29.3333 5.33337 27.5424 5.33337 25.3333V6.66663ZM9.33337 7.99996C9.33337 7.26358 9.93033 6.66663 10.6667 6.66663H18.6667C19.4031 6.66663 20 7.26358 20 7.99996C20 8.73634 19.4031 9.33329 18.6667 9.33329H10.6667C9.93033 9.33329 9.33337 8.73634 9.33337 7.99996ZM9.33337 13.3333C9.33337 12.5969 9.93033 12 10.6667 12H13.3334C14.0698 12 14.6667 12.5969 14.6667 13.3333C14.6667 14.0697 14.0698 14.6666 13.3334 14.6666H10.6667C9.93033 14.6666 9.33337 14.0697 9.33337 13.3333Z" fill="#343434"/>
<path d="M21.3334 20C21.3334 18.5272 22.5273 17.3333 24 17.3333C25.4728 17.3333 26.6667 18.5272 26.6667 20C26.6667 20.7363 27.2637 21.3333 28 21.3333C28.7364 21.3333 29.3334 20.7363 29.3334 20C29.3334 17.0544 26.9456 14.6666 24 14.6666C21.0545 14.6666 18.6667 17.0544 18.6667 20C18.6667 20.7363 19.2637 21.3333 20 21.3333C20.7364 21.3333 21.3334 20.7363 21.3334 20Z" fill="#343434"/>
<path d="M25.3334 21.3333C25.3334 20.5969 24.7364 20 24 20C23.2637 20 22.6667 20.5969 22.6667 21.3333V22.6666C22.6667 23.403 23.2637 24 24 24C24.7364 24 25.3334 23.403 25.3334 22.6666V21.3333Z" fill="#343434"/>
<path d="M21.3334 24C21.3334 23.2636 20.7364 22.6666 20 22.6666C19.2637 22.6666 18.6667 23.2636 18.6667 24C18.6667 26.9455 21.0545 29.3333 24 29.3333C26.9456 29.3333 29.3334 26.9455 29.3334 24C29.3334 23.2636 28.7364 22.6666 28 22.6666C27.2637 22.6666 26.6667 23.2636 26.6667 24C26.6667 25.4727 25.4728 26.6666 24 26.6666C22.5273 26.6666 21.3334 25.4727 21.3334 24Z" fill="#343434"/>
</svg>