<svg xmlns:xlink="http://www.w3.org/1999/xlink" xmlns="http://www.w3.org/2000/svg" width="32" height="32" viewBox="0 0 32 32" fill="none">
<path d="M2.66663 9.33337C2.66663 7.12423 4.45749 5.33337 6.66663 5.33337H25.3333C27.5424 5.33337 29.3333 7.12424 29.3333 9.33337V16.3334C29.3333 17.0698 28.7363 17.6667 28 17.6667C27.2636 17.6667 26.6666 17.0698 26.6666 16.3334V9.33337C26.6666 8.59699 26.0697 8.00004 25.3333 8.00004H6.66663C5.93025 8.00004 5.33329 8.59699 5.33329 9.33337V24C5.33329 24.7364 5.93025 25.3334 6.66663 25.3334H16C16.7363 25.3334 17.3333 25.9303 17.3333 26.6667C17.3333 27.4031 16.7363 28 16 28H6.66663C4.45749 28 2.66663 26.2092 2.66663 24V9.33337Z" fill="#343434"/>
<path d="M7.33329 11.6667C7.33329 12.5872 8.07948 13.3334 8.99996 13.3334C9.92043 13.3334 10.6666 12.5872 10.6666 11.6667C10.6666 10.7462 9.92043 10 8.99996 10C8.07948 10 7.33329 10.7462 7.33329 11.6667Z" fill="#343434"/>
<path d="M12 11.6667C12 12.5872 12.7462 13.3334 13.6666 13.3334C14.5871 13.3334 15.3333 12.5872 15.3333 11.6667C15.3333 10.7462 14.5871 10 13.6666 10C12.7462 10 12 10.7462 12 11.6667Z" fill="#343434"/>
<path d="M16.6666 11.6667C16.6666 12.5872 17.4128 13.3334 18.3333 13.3334C19.2538 13.3334 20 12.5872 20 11.6667C20 10.7462 19.2538 10 18.3333 10C17.4128 10 16.6666 10.7462 16.6666 11.6667Z" fill="#343434"/>
<path d="M19.7254 18.059C19.2534 17.9138 18.7397 18.0414 18.3905 18.3906C18.0413 18.7398 17.9137 19.2535 18.059 19.7255L20.7256 28.3922C20.8859 28.913 21.3469 29.2839 21.89 29.3289C22.4331 29.3738 22.9489 29.0838 23.1926 28.5964L24.9938 24.9939L28.5963 23.1926C29.0837 22.9489 29.3737 22.4332 29.3288 21.8901C29.2838 21.347 28.9129 20.886 28.3921 20.7257L19.7254 18.059Z" fill="#343434"/>
</svg>