<svg xmlns:xlink="http://www.w3.org/1999/xlink" xmlns="http://www.w3.org/2000/svg" width="102" height="25" viewBox="0 0 102 25" fill="none">
<g clip-path="url(#clip0_2055_26)">
<path d="M99.5884 15.1535L94.9499 8.16482L94.9473 8.16068C94.1895 6.99237 93.8053 5.8313 93.8053 4.70955C93.8053 3.88324 94.0106 3.13507 94.3826 2.60213C94.7984 2.00659 95.3967 1.70494 96.1609 1.70494C96.7503 1.70494 97.2655 1.87 97.6907 2.19493C98.0896 2.49969 98.4217 2.94983 98.678 3.53296L98.7295 3.65144C98.7559 3.71146 98.8069 3.75751 98.87 3.77769C98.9332 3.79787 99.0021 3.79063 99.0595 3.75803L99.1716 3.69335L100.139 3.13558L100.141 3.13455L100.243 3.07556C100.296 3.04452 100.335 2.99381 100.35 2.93483C100.365 2.87584 100.355 2.81324 100.323 2.76098L100.264 2.66577L100.262 2.66267C99.4268 1.30809 97.9707 0.5625 96.1609 0.5625C94.8463 0.5625 93.659 0.998163 92.817 1.78928C91.9729 2.58247 91.5082 3.70112 91.5082 4.94032C91.5082 6.51066 91.8697 7.67535 92.798 9.09513C92.7996 9.09772 92.8012 9.1003 92.8033 9.10289L97.4344 16.1128L97.4391 16.1205C98.4111 17.5693 98.8837 18.8597 98.8837 20.0663C98.8837 21.0939 98.6611 21.9528 98.2401 22.5499C97.7817 23.2003 97.0934 23.5304 96.194 23.5304C95.2946 23.5304 94.5589 23.1967 94.0563 22.539C93.5932 21.9326 93.338 21.0546 93.338 20.0658V19.2959C93.338 19.1702 93.2343 19.0682 93.1064 19.0682H91.173C91.0451 19.0682 90.9414 19.1702 90.9414 19.2959V20.2298C90.9414 22.7631 93.1996 24.6728 96.1945 24.6728C97.6833 24.6728 98.9532 24.2082 99.8668 23.3286C100.77 22.4578 101.248 21.2615 101.248 19.8687C101.248 18.3765 100.705 16.8341 99.5894 15.154L99.5884 15.1535Z" fill="black"/>
<path fill-rule="evenodd" clip-rule="evenodd" d="M43.3322 23.9122L43.458 24.0877C43.508 24.1575 43.5143 24.2486 43.4743 24.3241C43.4343 24.3997 43.3553 24.4473 43.2685 24.4473H40.5693C40.492 24.4473 40.4199 24.4095 40.3767 24.3464C40.3341 24.2832 40.3257 24.203 40.3551 24.1327L40.4209 23.9749C40.6277 23.4807 40.6214 23.1563 40.5356 22.7336C40.5347 22.7308 40.5342 22.7277 40.5337 22.7248L40.5335 22.7238L39.6847 18.1809H34.2247L33.7085 21.0163V21.0178L33.6916 21.1105C33.6722 21.2191 33.5759 21.2983 33.4638 21.2983H32.7623C32.6933 21.2983 32.6286 21.2688 32.5844 21.2171C32.5402 21.1653 32.5218 21.097 32.5339 21.0308L32.5581 20.8973L35.7619 3.04865L35.763 3.04399C35.8456 2.57159 35.8709 2.27719 35.8498 2.02883C35.8298 1.79289 35.7646 1.57765 35.623 1.28531V1.28376L35.5451 1.12233C35.5109 1.05196 35.5162 0.969173 35.5588 0.902945C35.6014 0.836716 35.6751 0.796875 35.7546 0.796875H37.4728C38.1969 0.796875 38.8427 1.34947 38.9805 2.08419C38.9816 2.0873 38.9821 2.0904 38.9827 2.09351L42.8533 22.598L42.8539 22.6005L42.8549 22.6063L42.8644 22.6627C42.9254 23.028 42.9949 23.4424 43.3301 23.9091L43.3322 23.9122ZM36.9108 3.49362L34.4505 17.0384H39.4579L36.9108 3.49362Z" fill="black"/>
<path d="M0.231555 0.796875H9.80792C9.9358 0.796875 10.0395 0.898805 10.0395 1.02453V1.71217C10.0395 1.8379 9.9358 1.93983 9.80792 1.93983H6.16883V22.6958C6.16883 22.9452 6.17672 23.1248 6.21566 23.3053C6.25619 23.4937 6.33355 23.6934 6.46616 23.9542L6.54984 24.1192C6.58562 24.1896 6.58142 24.2734 6.53931 24.3407C6.49721 24.4074 6.42248 24.4483 6.34249 24.4483H3.69803C3.61752 24.4483 3.54279 24.4074 3.50069 24.3402C3.45858 24.2729 3.4549 24.1891 3.49069 24.1182L3.57436 23.9531C3.70698 23.6929 3.78381 23.4932 3.82434 23.3053C3.86328 23.1242 3.87117 22.9447 3.87117 22.6953V1.93931H0.231555C0.103673 1.93931 0 1.83738 0 1.71165V1.02453C0 0.898805 0.103673 0.796875 0.231555 0.796875Z" fill="black"/>
<path d="M67.1005 1.29101C67.2337 1.55282 67.311 1.75254 67.351 1.93932C67.39 2.1199 67.3979 2.29996 67.3979 2.54883V19.4945C67.3979 19.6203 67.5015 19.7222 67.6294 19.7222H75.0029C75.1307 19.7222 75.2344 19.6203 75.2344 19.4945V18.8079C75.2344 18.6822 75.1307 18.5803 75.0029 18.5803H69.695V9.0589H75.0029C75.1307 9.0589 75.2344 8.95697 75.2344 8.83124V8.14464C75.2344 8.01891 75.1307 7.91698 75.0029 7.91698H69.695V1.93932H75.0029C75.1307 1.93932 75.2344 1.83739 75.2344 1.71166V1.02454C75.2344 0.898805 75.1307 0.796875 75.0029 0.796875H67.2242C67.1437 0.796875 67.0695 0.837751 67.0269 0.905014C66.9848 0.972278 66.9805 1.0561 67.0169 1.12647L67.1005 1.29101Z" fill="black"/>
<path fill-rule="evenodd" clip-rule="evenodd" d="M76.078 22.7678L76.3448 23.162L76.409 23.2588C76.4427 23.3095 76.4553 23.3716 76.4427 23.4311C76.4301 23.4906 76.3943 23.5428 76.3422 23.5759L76.2438 23.6386C76.2432 23.6388 76.2426 23.6392 76.2419 23.6396C76.2415 23.6398 76.2404 23.6405 76.2401 23.6406C74.9892 24.4374 73.4557 24.8415 71.6827 24.8415C69.7676 24.8415 68.2546 24.5104 66.92 23.7995C65.6307 23.1129 64.4682 22.0449 63.2604 20.4389V20.4378C62.6394 19.6157 62.13 18.8701 61.6806 18.2119L61.5522 18.0241C61.0864 17.3427 60.6665 16.7399 60.2481 16.2618C59.8155 15.7682 59.4071 15.4371 58.9645 15.2208C58.4993 14.9931 57.9825 14.8803 57.3468 14.8684V24.2201C57.3468 24.3459 57.2431 24.4478 57.1153 24.4478H55.2818C55.1539 24.4478 55.0502 24.3459 55.0502 24.2201V2.54934C55.0502 2.29995 55.0423 2.12041 55.0034 1.93983C54.9634 1.75305 54.886 1.55333 54.7529 1.29152L54.6692 1.12646C54.6329 1.05609 54.6371 0.972277 54.6792 0.905014C54.7218 0.83775 54.796 0.796875 54.8765 0.796875H57.9678C59.9665 0.796875 61.6306 1.45243 62.7799 2.69267C63.9198 3.92307 64.5224 5.70038 64.5224 7.83211C64.5224 11.022 62.9989 13.4569 60.4812 14.4116C62.2163 15.2782 63.5446 16.9541 65.2533 19.2737L65.2581 19.2799C67.23 21.9673 69.0319 23.6329 71.9174 23.6329C73.4856 23.6329 74.585 23.3462 75.5938 22.6741H75.5949L75.6901 22.6105C75.7412 22.5763 75.8033 22.5639 75.8643 22.5753C75.9249 22.5867 75.9785 22.6218 76.0128 22.672L76.077 22.7662L76.078 22.7678ZM57.5668 1.93983H57.3468V13.7244H57.5663C59.0635 13.7244 60.2091 13.1993 60.9722 12.1634C61.7148 11.1565 62.091 9.79 62.091 7.83211C62.091 5.87423 61.7648 4.45497 61.0927 3.49362C60.3628 2.44793 59.2092 1.93983 57.5668 1.93983Z" fill="black"/>
<path d="M86.8891 0.796875H88.7236C88.8515 0.796875 88.9552 0.898805 88.9552 1.02453V19.7419C88.9552 21.1922 88.4831 22.4232 87.5895 23.3017C86.6738 24.2015 85.364 24.677 83.802 24.677C81.9922 24.677 80.5355 23.9314 79.7004 22.5768L79.6393 22.478C79.6072 22.4257 79.5972 22.3631 79.6125 22.3041C79.6277 22.2452 79.6662 22.1945 79.7198 22.1634L79.8214 22.1044L79.8235 22.1034L80.9023 21.4815C80.9597 21.4484 81.0286 21.4411 81.0918 21.4613C81.1549 21.4815 81.206 21.5275 81.2323 21.5875L81.2823 21.7019L81.2831 21.704L81.2839 21.706C81.5407 22.2902 81.8733 22.7403 82.2711 23.0446C82.6969 23.3695 83.2121 23.5346 83.8015 23.5346C84.8367 23.5346 85.5734 23.1403 86.0539 22.33C86.4486 21.6641 86.6575 20.7121 86.6575 19.5779V1.02453C86.6575 0.898805 86.7612 0.796875 86.8891 0.796875Z" fill="black"/>
<path d="M36.1518 23.413L35.885 23.0523L35.8203 22.9638C35.7471 22.865 35.6076 22.8407 35.504 22.9085L35.414 22.9675L35.4119 22.969C35.0614 23.1988 34.6983 23.3053 34.2694 23.3053H26.9417V12.0128H32.5169C32.6448 12.0128 32.7485 11.9109 32.7485 11.7852V11.0981C32.7485 10.9723 32.6448 10.8704 32.5169 10.8704H26.9417V1.93983H32.5169C32.6448 1.93983 32.7485 1.8379 32.7485 1.71217V1.02453C32.7485 0.898805 32.6448 0.796875 32.5169 0.796875H24.4714C24.3909 0.796875 24.3167 0.83775 24.2741 0.905014C24.2315 0.972277 24.2278 1.05609 24.2641 1.12646L24.3473 1.28996V1.29152C24.4809 1.55333 24.5583 1.75305 24.5983 1.93931C24.6372 2.12041 24.6446 2.30047 24.6446 2.54934V24.2201C24.6446 24.3459 24.7483 24.4478 24.8761 24.4478H34.403C35.0703 24.4478 35.574 24.2786 36.0865 23.8828L36.1739 23.8145C36.2718 23.7389 36.2913 23.6003 36.2176 23.5014L36.1518 23.413Z" fill="black"/>
<path d="M76.7236 23.2852C76.7236 22.5722 77.3136 21.9922 78.0388 21.9922C78.7645 21.9922 79.3544 22.5717 79.3544 23.2852C79.3544 23.9987 78.7639 24.5787 78.0388 24.5787C77.3136 24.5787 76.7236 23.9982 76.7236 23.2852Z" fill="black"/>
<path d="M21.8092 23.9531C21.6766 23.6929 21.5997 23.4926 21.5587 23.3053C21.5197 23.1242 21.5124 22.9442 21.5124 22.6953V1.02453C21.5124 0.898805 21.4087 0.796875 21.2808 0.796875H19.4473C19.3195 0.796875 19.2158 0.898805 19.2158 1.02453V13.7244H13.6374V1.02453C13.6374 0.898805 13.5337 0.796875 13.4059 0.796875H11.5724C11.4445 0.796875 11.3408 0.898805 11.3408 1.02453V24.2201C11.3408 24.3459 11.4445 24.4478 11.5724 24.4478H13.4059C13.5337 24.4478 13.6374 24.3459 13.6374 24.2201V14.8674H19.2158V24.2201C19.2158 24.3459 19.3195 24.4478 19.4473 24.4478H21.686C21.7666 24.4478 21.8408 24.4069 21.8834 24.3396C21.9255 24.2724 21.9297 24.1886 21.8934 24.1177L21.8092 23.9531Z" fill="black"/>
<path d="M43.6086 0.796875H53.1849C53.3128 0.796875 53.4165 0.898805 53.4165 1.02453V1.71217C53.4165 1.8379 53.3128 1.93983 53.1849 1.93983H49.5453V22.6953C49.5453 22.9442 49.5532 23.1242 49.5922 23.3048C49.6327 23.4926 49.71 23.6924 49.8427 23.9526L49.8437 23.9547L49.9263 24.1182C49.9621 24.1886 49.9579 24.2724 49.9158 24.3396C49.8737 24.4064 49.799 24.4473 49.719 24.4473H47.0745C46.994 24.4473 46.9193 24.4064 46.8772 24.3391C46.8351 24.2724 46.8314 24.1886 46.8672 24.1177L46.9509 23.9526C47.0835 23.6924 47.1608 23.4932 47.2008 23.3053C47.2398 23.1242 47.2477 22.9447 47.2477 22.6953V1.93931H43.6086C43.4807 1.93931 43.377 1.83738 43.377 1.71165V1.02453C43.377 0.898805 43.4807 0.796875 43.6086 0.796875Z" fill="black"/>
</g>
<defs>
<clipPath id="clip0_2055_26">
<rect width="102" height="25" fill="white"/>
</clipPath>
</defs>
</svg>